<?xml version="1.0" encoding="UTF-8"?>
<!DOCTYPE svg PUBLIC "-//W3C//DTD SVG 1.1//EN" "http://www.w3.org/Graphics/SVG/1.1/DTD/svg11.dtd">
<!-- Creator: CorelDRAW X7 -->
<svg xmlns="http://www.w3.org/2000/svg" xml:space="preserve" width="8.5in" height="11in" version="1.1" style="shape-rendering:geometricPrecision; text-rendering:geometricPrecision; image-rendering:optimizeQuality; fill-rule:evenodd; clip-rule:evenodd"
viewBox="0 0 8500 11000"
 xmlns:xlink="http://www.w3.org/1999/xlink">
 <defs>
  <style type="text/css">
   <![CDATA[
    .fil1 {fill:#FEFEFE;fill-rule:nonzero}
    .fil63 {fill:#FEF5EC;fill-rule:nonzero}
    .fil52 {fill:#FFF0E0;fill-rule:nonzero}
    .fil57 {fill:#F9B4A4;fill-rule:nonzero}
    .fil18 {fill:#F8AE99;fill-rule:nonzero}
    .fil14 {fill:#F37F76;fill-rule:nonzero}
    .fil28 {fill:#F37A76;fill-rule:nonzero}
    .fil41 {fill:#F8D89F;fill-rule:nonzero}
    .fil71 {fill:#F8CD85;fill-rule:nonzero}
    .fil6 {fill:#F3AF3F;fill-rule:nonzero}
    .fil19 {fill:#EEEEEE;fill-rule:nonzero}
    .fil64 {fill:#F2D14C;fill-rule:nonzero}
    .fil56 {fill:#EAEAEA;fill-rule:nonzero}
    .fil17 {fill:#EAE5DF;fill-rule:nonzero}
    .fil22 {fill:#E16C63;fill-rule:nonzero}
    .fil47 {fill:#E5E6E7;fill-rule:nonzero}
    .fil15 {fill:#E2E3E4;fill-rule:nonzero}
    .fil42 {fill:#E2D0B8;fill-rule:nonzero}
    .fil46 {fill:#E2C49A;fill-rule:nonzero}
    .fil38 {fill:#D66142;fill-rule:nonzero}
    .fil25 {fill:#D75D5E;fill-rule:nonzero}
    .fil44 {fill:#DFBD96;fill-rule:nonzero}
    .fil73 {fill:#DBDDDE;fill-rule:nonzero}
    .fil29 {fill:#D26564;fill-rule:nonzero}
    .fil0 {fill:#D7D8DA;fill-rule:nonzero}
    .fil54 {fill:#D2D4D5;fill-rule:nonzero}
    .fil40 {fill:#D0A6A9;fill-rule:nonzero}
    .fil16 {fill:#CBCDCF;fill-rule:nonzero}
    .fil21 {fill:#C9BEC0;fill-rule:nonzero}
    .fil35 {fill:#C58C3D;fill-rule:nonzero}
    .fil32 {fill:#C07B3B;fill-rule:nonzero}
    .fil72 {fill:#C4C7CA;fill-rule:nonzero}
    .fil49 {fill:#B35550;fill-rule:nonzero}
    .fil45 {fill:#C4A2A5;fill-rule:nonzero}
    .fil37 {fill:#C2A26F;fill-rule:nonzero}
    .fil43 {fill:#C29E9B;fill-rule:nonzero}
    .fil51 {fill:#BBAFB3;fill-rule:nonzero}
    .fil23 {fill:#B6ACB0;fill-rule:nonzero}
    .fil12 {fill:#AC7E3C;fill-rule:nonzero}
    .fil31 {fill:#994E50;fill-rule:nonzero}
    .fil10 {fill:#A77F3C;fill-rule:nonzero}
    .fil26 {fill:#8D494B;fill-rule:nonzero}
    .fil33 {fill:#874745;fill-rule:nonzero}
    .fil20 {fill:#AEA5AA;fill-rule:nonzero}
    .fil75 {fill:#AA9065;fill-rule:nonzero}
    .fil58 {fill:#814B3D;fill-rule:nonzero}
    .fil34 {fill:#7D3E40;fill-rule:nonzero}
    .fil3 {fill:#A9ACB0;fill-rule:nonzero}
    .fil27 {fill:#7F4847;fill-rule:nonzero}
    .fil7 {fill:#A8ACAF;fill-rule:nonzero}
    .fil39 {fill:#673434;fill-rule:nonzero}
    .fil48 {fill:#572C2C;fill-rule:nonzero}
    .fil36 {fill:#9FA2A7;fill-rule:nonzero}
    .fil66 {fill:#9A9DA2;fill-rule:nonzero}
    .fil24 {fill:#573536;fill-rule:nonzero}
    .fil70 {fill:#6F5934;fill-rule:nonzero}
    .fil4 {fill:#898B90;fill-rule:nonzero}
    .fil55 {fill:#898B9D;fill-rule:nonzero}
    .fil61 {fill:#686D69;fill-rule:nonzero}
    .fil65 {fill:#696C6F;fill-rule:nonzero}
    .fil2 {fill:#6A6E77;fill-rule:nonzero}
    .fil67 {fill:#67696F;fill-rule:nonzero}
    .fil8 {fill:#64666A;fill-rule:nonzero}
    .fil59 {fill:#585C57;fill-rule:nonzero}
    .fil5 {fill:#5E616C;fill-rule:nonzero}
    .fil13 {fill:#575A63;fill-rule:nonzero}
    .fil74 {fill:#595B67;fill-rule:nonzero}
    .fil30 {fill:#4F4E55;fill-rule:nonzero}
    .fil62 {fill:#494E4E;fill-rule:nonzero}
    .fil60 {fill:#393C38;fill-rule:nonzero}
    .fil69 {fill:#45484D;fill-rule:nonzero}
    .fil9 {fill:#46484F;fill-rule:nonzero}
    .fil11 {fill:#3A3A41;fill-rule:nonzero}
    .fil50 {fill:#343237;fill-rule:nonzero}
    .fil68 {fill:#34353B;fill-rule:nonzero}
    .fil53 {fill:#252422;fill-rule:nonzero}
   ]]>
  </style>
 </defs>
 <g id="Layer_x0020_1">
  <metadata id="CorelCorpID_0Corel-Layer"/>
  <path class="fil0" d="M5273 5993c-14,0 -29,0 -44,0 -2,-23 -8,-46 -16,-68l0 -2 -302 36 0 0 302 -36 -118 -284c12,0 24,-2 36,-3l-3 -27c-15,2 -29,3 -43,4l-5 -12 -380 -918c-54,-135 -163,-241 -299,-292 -2,-1 -4,-2 -7,-3l0 0 -2 -1 -101 -36 -38 -14 -70 -26 -160 -58 0 -201c43,-60 72,-150 77,-209l7 -92 43 -5c0,0 84,-265 -39,-342 -23,-12 -42,-16 -59,-16 -41,0 -62,26 -62,26 0,0 -28,-138 -196,-138 -28,0 -60,3 -96,12 -31,8 -59,11 -82,11 -101,0 -135,-56 -135,-56 0,0 0,0 0,1 0,12 2,236 112,304 47,40 57,118 57,179 0,4 0,9 0,13 -33,11 -57,42 -57,79l0 0c0,45 37,82 82,82 0,0 1,0 1,0 0,0 0,0 0,0 1,0 1,0 2,0 6,0 13,-1 19,-2 13,51 36,110 68,153l0 201 -182 66 -48 18 -39 14 -101 36 -2 1c-92,33 -172,91 -232,167 -30,38 -55,81 -74,128l-125 303 -74 178 0 0 -34 83 -102 246c-14,-3 -29,-7 -44,-11l-7 27c14,3 27,6 41,9l-141 341c-547,-104 -1112,-387 -1376,-849 -270,-472 -376,-1082 -253,-1608 115,-495 474,-895 975,-1047 222,-67 453,-76 685,-76 41,0 82,0 123,0 41,1 82,1 123,1 227,0 453,-8 670,-72 14,73 50,143 103,195 1,2 3,3 5,5 30,28 47,62 59,100 -5,2 -10,4 -15,6 -7,4 -15,7 -23,10l10 25c8,-3 16,-6 24,-10 4,-1 7,-3 11,-4 0,2 1,5 2,7 3,14 18,133 18,168 0,6 0,9 -1,9l0 0c39,0 84,0 115,0l0 0c23,0 38,0 38,0 0,0 85,0 154,0 -7,0 14,-161 17,-177 10,-40 22,-77 45,-108 13,-2 25,-3 37,-5l-3 -27c-2,1 -4,1 -6,1 99,-96 135,-253 91,-381 71,-8 144,-12 216,-12 615,0 1237,269 1637,725 502,573 624,1498 466,2214 -80,362 -289,711 -623,893 -197,108 -424,151 -652,151zm-41 -399c-17,3 -34,6 -52,9l4 26c18,-2 36,-5 54,-9l-6 -26 0 0zm103 -26l0 0c-17,5 -34,10 -51,14l6 26c18,-4 35,-9 53,-14l-8 -26zm99 -36c-16,7 -33,13 -49,19l9 26c17,-7 34,-13 50,-20l-10 -25zm94 -48c-7,4 -14,8 -21,12 -8,5 -17,9 -26,14l13 24c8,-5 17,-9 26,-14 7,-4 14,-8 21,-12l-13 -24zm-2922 -30l-8 26c17,5 34,10 51,15l8 -26c-17,-5 -34,-10 -51,-15zm3009 -28c-14,10 -28,21 -43,30l15 23c15,-10 30,-21 45,-32l-17 -21zm-3110 -5l-9 26c16,6 33,11 51,17l8 -26c-17,-5 -34,-11 -50,-17zm-99 -38l-11 25c17,7 33,13 50,20l10 -25c-17,-7 -33,-13 -49,-20zm3289 -26c-13,12 -26,24 -39,36l18 20c13,-12 27,-24 40,-36l-19 -20 0 0zm-3386 -18l-12 24c16,8 32,16 49,23l11 -24c-16,-8 -32,-15 -48,-23zm-95 -49l-13 23c16,9 32,18 48,26l12 -24c-16,-8 -31,-16 -47,-25zm3553 -10c-11,13 -23,27 -35,40l20 18c12,-13 24,-27 36,-41l-21 -17 0 0zm-3644 -45l-14 23c15,9 30,19 45,28l14 -23c-15,-9 -30,-18 -45,-28zm3707 -40c-10,15 -20,29 -30,44l21 16c11,-15 21,-29 32,-44l-23 -16zm-3794 -21l-16 22c14,11 29,21 44,32l15 -23c-14,-10 -29,-20 -43,-31zm3836 -15l10 6c1,-2 2,-3 3,-5 9,1 19,1 29,1 198,0 381,-131 438,-331l0 0c0,0 0,0 0,0 0,0 0,0 0,0 0,-1 0,-1 0,-1 0,0 0,0 0,0 1,0 1,0 1,-1 0,0 0,0 0,0 0,0 0,0 0,0l0 0c11,-41 17,-83 17,-123 0,-192 -122,-369 -311,-432 -7,-3 -15,-5 -23,-7 0,0 0,0 0,0 0,0 0,0 0,0 -1,0 -1,0 -1,0 0,-1 0,-1 0,-1 0,0 0,0 0,0 0,0 0,0 0,0 -1,0 -1,0 -1,0 0,0 0,0 0,0 0,0 0,0 0,0 0,0 0,0 0,0 -1,0 -1,0 -1,0 0,0 0,0 0,0 -40,-11 -80,-16 -120,-16 -185,0 -356,113 -424,291l0 0c0,0 0,0 0,0 0,0 0,0 0,0 -1,0 -1,0 -1,0 0,1 0,1 0,1 0,0 0,0 0,0 -5,13 -10,27 -13,41 -68,243 74,494 316,562l0 0c27,8 54,13 81,15zm-3918 -52l-18 21c14,12 27,23 41,35l17 -21c-13,-12 -27,-23 -40,-35zm-76 -73l-20 19c13,13 25,26 38,38l19 -19c-13,-13 -25,-25 -37,-38zm526 -689c-75,213 -177,511 -235,695 -5,15 7,25 19,25 7,0 13,-3 17,-11 89,-176 229,-471 325,-676 37,20 68,48 92,83 14,20 36,30 57,30 20,0 40,-8 53,-26 65,-83 99,-177 93,-275 -1,-8 -1,-16 -2,-24 0,-8 0,-16 -1,-23 -17,-275 -341,-482 -738,-482 -23,0 -47,0 -70,2 -218,13 -411,86 -547,193l-16 -1c0,5 0,10 0,14 -121,102 -190,231 -182,368 1,8 2,15 3,23 0,8 0,16 0,24 11,176 148,325 351,409l0 0c7,16 15,32 23,48l24 -11 0 0 0 0c-4,-8 -8,-16 -11,-23 104,37 224,59 351,59 24,0 47,-1 71,-2l0 -1c43,-2 72,-43 62,-84 -1,-4 -2,-9 -3,-13 3,-11 3,-22 0,-34 -2,-9 -4,-17 -5,-26 3,-134 108,-247 243,-260 8,0 16,-1 24,-1 1,0 1,0 2,0zm-596 609l-21 17c11,14 23,28 34,42l21 -18c-12,-13 -23,-27 -34,-41zm-61 -85l-23 14c10,15 20,30 30,45l22 -16c0,0 0,0 0,0l0 0c-10,-14 -20,-29 -29,-43zm-53 -92l-24 12c8,16 17,32 26,48l23 -14c-8,-15 -17,-31 -25,-46zm4387 -603l-27 2c0,17 1,35 2,53l27 -1c-1,-18 -2,-36 -2,-54zm-8 -107l-27 3c2,17 3,35 5,53l27 -2c-2,-18 -3,-36 -5,-54zm-12 -107l-27 4c3,17 5,35 7,53l27 -3c-2,-18 -4,-36 -7,-54zm-17 -106l-26 5c3,17 6,35 9,52l26 -4c-2,-18 -5,-35 -9,-53zm-21 -105l-27 6 0 0c4,17 8,34 12,52l26 -6c-4,-18 -7,-35 -11,-52zm-4566 -1c-1,17 -3,35 -4,53l27 2c1,-18 3,-35 4,-53l-27 -2zm4539 -104l-26 8c4,17 9,34 14,51l26 -7c-5,-17 -9,-34 -14,-52zm-4525 -3c-3,17 -6,35 -8,53l27 3c2,-17 5,-35 7,-52l-26 -4zm4492 -99l-25 8c6,17 11,34 16,51l26 -8c-5,-17 -11,-34 -17,-51zm-4472 -7c-4,17 -8,35 -11,52l26 6c4,-18 7,-35 11,-52l-26 -6zm4435 -94l-25 10c6,16 13,33 19,49l25 -9c-6,-17 -12,-34 -19,-50zm-4406 -11c-6,17 -11,35 -16,52l26 7c5,-17 10,-34 16,-50l-26 -9zm4363 -88l-25 12c8,16 15,32 22,48l25 -11c-7,-16 -15,-33 -22,-49zm-4325 -13c-7,17 -14,33 -20,50l25 10c6,-17 13,-33 20,-49l-25 -11zm4275 -82l-23 13c8,15 17,31 25,46l24 -12c-8,-16 -17,-32 -26,-47zm-4228 -15c-8,15 -17,31 -25,48l25 11c7,-15 16,-31 24,-47l-24 -12zm4173 -78l-23 15c10,15 19,30 28,45l23 -14c-9,-16 -18,-31 -28,-46zm-4117 -15c-10,15 -20,30 -29,46l23 13c9,-15 19,-30 28,-44l-22 -15zm4055 -73l-21 16 0 0c10,14 21,28 31,43l22 -16c-10,-14 -21,-29 -32,-43zm-3991 -14c-11,14 -22,28 -33,43l22 16c10,-15 21,-29 32,-42l-21 -17zm3923 -70l-20 18 2 2c11,13 22,25 32,38l21 -17c-11,-13 -21,-26 -33,-38l-2 -3zm-3851 -11c-12,13 -25,26 -37,40l20 18c12,-14 24,-26 36,-39l-19 -19zm3777 -68l-19 20c13,12 25,25 37,38l20 -19c-13,-13 -25,-26 -38,-39zm-3698 -6c-13,12 -27,24 -40,36l18 20c13,-12 26,-24 40,-35l-18 -21zm3601 -46c14,11 27,23 40,35l18 -20c-13,-12 -26,-24 -40,-36l-18 21 0 0 0 0zm-3515 -19c-15,10 -29,21 -43,32l16 21c14,-11 28,-21 43,-31l-16 -22zm92 -58c-16,9 -32,18 -47,28l15 23c14,-10 30,-19 45,-27l-13 -24zm3357 -12l-16 22c14,10 28,21 42,32l17 -21c-14,-11 -28,-22 -43,-33zm-3261 -36c-16,7 -33,15 -49,23l13 24c15,-8 31,-16 47,-23l-11 -24zm3173 -26l-15 22c15,10 30,20 44,30l16 -22c-15,-10 -30,-20 -45,-30zm-3072 -14c-17,6 -34,12 -51,19l10 25c16,-7 33,-13 50,-18l-9 -26zm104 -30c-18,4 -35,9 -53,14l8 26c17,-5 34,-10 51,-14l-6 -26zm2877 -13l-14 23c16,9 31,18 46,27l14 -23c-15,-9 -31,-18 -46,-27zm-2771 -8c-18,2 -36,6 -53,9l5 27c17,-4 34,-7 52,-10l-4 -26zm107 -14c-18,2 -36,4 -54,6l3 27c18,-2 36,-4 53,-6l-2 -27zm107 -7c-18,1 -36,2 -54,3l2 27c18,-1 36,-2 53,-3l-1 -27zm2462 -23l-12 24c16,8 31,17 47,25l13 -24c-16,-8 -32,-17 -48,-25zm-2355 20c-17,1 -35,1 -53,1l0 27c18,0 36,0 54,-1l-1 -27zm321 1c-17,0 -35,0 -53,0l0 27c18,0 36,0 54,0l-1 -27zm-160 -1l0 27c18,1 36,1 53,1l1 -27c-18,0 -36,0 -54,-1zm-94 27c13,0 27,0 41,0l0 -27c-14,0 -28,0 -41,0 -5,0 -9,0 -13,0l0 27c4,0 8,0 13,0zm361 -29c-18,1 -36,1 -53,2l0 27c18,-1 36,-1 54,-2l-1 -27zm55 24l0 0c18,-1 36,-2 53,-3l-2 -27c-18,1 -35,2 -53,4l2 26 0 0 0 0zm156 -43c-17,3 -35,5 -52,7l3 27c18,-2 36,-4 53,-7l-4 -27zm104 -20c-17,4 -34,8 -51,11l5 27c17,-3 35,-7 53,-11l-7 -27zm1514 -24l-10 24c16,7 32,15 48,22l12 -24c-17,-8 -33,-15 -50,-22zm-1412 -4c-17,5 -33,11 -50,15l7 26c17,-4 34,-10 52,-16l-9 -25zm1312 -36l-9 25c17,6 33,12 50,19l10 -25c-17,-7 -34,-13 -51,-19zm-102 -34l-8 25c17,6 34,11 51,16l8 -25c-17,-6 -34,-11 -51,-16zm-104 -28l-6 26c17,4 34,8 51,13l7 -26c-17,-5 -35,-9 -52,-13zm-106 -22l-4 26c17,3 35,7 52,10l5 -26c-17,-4 -35,-7 -53,-10zm-106 -16l-3 27c17,2 35,4 52,7l4 -27c-17,-3 -35,-5 -53,-7zm-107 -9l-2 27c18,1 35,2 53,3l2 -27c-18,-1 -36,-2 -53,-3zm-162 -2c-18,1 -36,2 -54,3l2 27c18,-1 35,-2 53,-3l-1 -27zm64 26c14,0 29,0 43,0l1 -27c-15,0 -30,0 -44,0 -4,0 -7,0 -10,0l0 27c3,0 6,0 10,0zm372 3336l-236 0 -9 -203c16,5 32,9 48,14l8 -26c-17,-5 -35,-10 -52,-15l-4 16 -19 -434 88 218 0 0 176 430zm-138 -202l-7 27c18,4 35,9 52,13l7 -27c-18,-4 -35,-8 -52,-13zm-1215 202l-236 0 76 -186c2,0 4,0 6,0 3,0 5,0 8,0 15,0 29,0 44,-1l-1 -27c-14,1 -29,1 -43,1 -1,0 -2,0 -3,0l177 -435 -28 648zm4 -219c-18,2 -36,3 -54,4l2 27c18,-1 36,-2 53,-4l-1 -27z"/>
  <path class="fil1" d="M3075 5540c-10,0 -20,-1 -30,-2 -8,0 -15,-1 -23,-2l-2 27c7,1 15,1 23,2 10,1 20,2 30,2l2 -27zm-106 -9c-17,-3 -35,-5 -53,-7l-3 26c17,3 35,5 53,7l3 -26zm-105 -16c-17,-3 -35,-6 -52,-9l-6 26c18,4 36,7 53,10l5 -27zm-104 -20c-18,-4 -35,-8 -52,-13l-7 27c18,4 35,8 53,12l6 -26zm-103 -26c-17,-5 -34,-10 -51,-15l-8 26c17,5 34,10 51,15l8 -26zm-102 -31c-17,-5 -34,-11 -50,-17l-9 26c16,6 33,11 51,17l8 -26zm-100 -35c-17,-7 -33,-13 -49,-20l-11 25c17,7 33,13 50,20l10 -25zm-98 -41c-16,-8 -32,-15 -48,-23l-12 24c16,8 32,16 49,23l11 -24zm-96 -47c-16,-8 -31,-16 -47,-25l-13 23c16,9 32,18 48,26l12 -24zm-93 -52c-15,-9 -30,-18 -45,-28l-14 23c15,9 30,19 45,28l14 -23zm-89 -58c-14,-10 -29,-20 -43,-31l-16 22c14,11 29,21 44,32l15 -23zm-85 -63c-13,-12 -27,-23 -40,-35l-18 21c14,12 27,23 41,35l17 -21zm-79 -70c-13,-13 -25,-25 -37,-38l-20 19c13,13 25,26 38,38l19 -19zm-73 -77c-12,-13 -23,-27 -34,-41l-21 17c11,14 23,28 34,42l21 -18zm-66 -83c-10,-14 -20,-29 -29,-43l-23 14c10,15 20,30 30,45l22 -16 0 0zm-57 -89c-8,-15 -17,-31 -25,-46l-24 12c8,16 17,32 26,48l23 -14zm-49 -93c-8,-16 -16,-32 -23,-48l-24 11c7,16 15,32 23,48l24 -11 0 0zm-44 -97c-7,-16 -14,-33 -20,-49l-25 9c6,17 13,34 20,50l25 -10zm-38 -99c-6,-17 -12,-34 -17,-50l-26 8c5,17 11,34 17,51l26 -9zm-33 -101c-5,-17 -10,-34 -14,-51l-26 6c4,18 9,35 14,52l26 -7zm-27 -103c-4,-17 -8,-34 -12,-52l-26 6c4,17 7,35 12,52l26 -6zm-22 -104c-3,-17 -5,-35 -8,-52l-27 4c3,17 6,35 9,53l26 -5zm-15 -105c-2,-18 -4,-35 -6,-53l-27 3c2,17 4,35 6,53l27 -3zm-10 -106c-1,-18 -2,-35 -2,-53l-27 1c0,18 1,36 2,54l27 -2zm-3 -106c0,-2 0,-5 0,-7 0,-15 0,-31 0,-46l-27 -1c0,16 0,31 0,47 0,2 0,5 0,7l27 0zm2 -106c1,-18 3,-35 4,-53l-27 -2c-1,17 -3,35 -4,53l27 2zm10 -106c2,-17 5,-35 7,-52l-26 -4c-3,17 -6,35 -8,53l27 3zm16 -104c4,-18 7,-35 11,-52l-26 -6c-4,17 -8,35 -11,52l26 6zm24 -104c5,-17 10,-34 16,-50l-26 -9c-6,17 -11,35 -16,52l26 7zm33 -100c6,-17 13,-33 20,-49l-25 -11c-7,17 -14,33 -20,50l25 10zm42 -98c7,-15 16,-31 24,-47l-24 -12c-8,15 -17,31 -25,48l25 11zm50 -93c9,-15 19,-30 28,-44l-22 -15c-10,15 -20,30 -29,46l23 13zm59 -87c10,-15 21,-29 32,-42l-21 -17c-11,14 -22,28 -33,43l22 16zm66 -82c12,-14 24,-26 36,-39l-19 -19c-12,13 -25,26 -37,40l20 18zm74 -76c13,-12 26,-24 40,-35l-18 -21c-13,12 -27,24 -40,36l18 20zm81 -68c14,-11 28,-21 43,-31l-16 -22c-15,10 -29,21 -43,32l16 21zm87 -60c14,-10 30,-19 45,-27l-13 -24c-16,9 -32,18 -47,28l15 23zm92 -52c15,-8 31,-16 47,-23l-11 -24c-16,7 -33,15 -49,23l13 24zm96 -43c16,-7 33,-13 50,-18l-9 -26c-17,6 -34,12 -51,19l10 25zm100 -34c17,-5 34,-10 51,-14l-6 -26c-18,4 -35,9 -53,14l8 26zm103 -25c17,-4 34,-7 52,-10l-4 -26c-18,2 -36,6 -53,9l5 27zm104 -17c18,-2 36,-4 53,-6l-2 -27c-18,2 -36,4 -54,6l3 27zm106 -10c18,-1 36,-2 53,-3l-1 -27c-18,1 -36,2 -54,3l2 27zm106 -5c18,0 36,0 54,-1l-1 -27c-17,1 -35,1 -53,1l0 27zm107 -1c4,0 8,0 13,0 13,0 27,0 41,0l0 -27c-14,0 -28,0 -41,0 -5,0 -9,0 -13,0l0 27zm107 0c18,1 36,1 53,1l1 -27c-18,0 -36,0 -54,-1l0 27zm107 1c18,0 36,0 54,0l-1 -27c-17,0 -35,0 -53,0l0 27zm107 -1c18,-1 36,-1 54,-2l-1 -27c-18,1 -36,1 -53,2l0 27zm108 -5c18,-1 36,-2 53,-3l-2 -27c-18,1 -35,2 -53,4l2 26 0 0zm107 -9c18,-2 36,-4 53,-7l-4 -27c-17,3 -35,5 -52,7l3 27zm107 -16c17,-3 35,-7 53,-11l-7 -27c-17,4 -34,8 -51,11l5 27zm105 -25c17,-4 34,-10 52,-16l-9 -25c-17,5 -33,11 -50,15l7 26zm103 -34c8,-3 16,-6 24,-10 8,-3 17,-7 25,-10l-10 -25c-8,3 -17,7 -26,10 -7,4 -15,7 -23,10l10 25zm99 -39c16,-6 33,-11 50,-17l-8 -26c-17,6 -34,12 -51,18l9 25zm101 -32c17,-5 34,-9 51,-13l-6 -26c-18,4 -35,8 -52,13l7 26zm103 -25c17,-3 35,-6 52,-9l-5 -27c-17,3 -35,6 -53,10l6 26zm104 -17c18,-3 35,-5 53,-7l-3 -27c-18,2 -35,4 -53,7l3 27zm106 -11c18,-1 35,-2 53,-3l-1 -27c-18,1 -36,2 -54,3l2 27zm106 -4c3,0 6,0 10,0 14,0 29,0 43,0l1 -27c-15,0 -30,0 -44,0 -4,0 -7,0 -10,0l0 27zm106 3c18,1 35,2 53,3l2 -27c-18,-1 -36,-2 -53,-3l-2 27zm106 9c17,2 35,4 52,7l4 -27c-17,-3 -35,-5 -53,-7l-3 27zm105 15c17,3 35,7 52,10l5 -26c-17,-4 -35,-7 -53,-10l-4 26zm104 22c17,4 34,8 51,13l7 -26c-17,-5 -35,-9 -52,-13l-6 26zm102 27c17,6 34,11 51,16l8 -25c-17,-6 -34,-11 -51,-16l-8 25zm101 34c17,6 33,12 50,19l10 -25c-17,-7 -34,-13 -51,-19l-9 25zm99 39c16,7 32,15 48,22l12 -24c-17,-8 -33,-15 -50,-22l-10 24zm96 45c16,8 31,17 47,25l13 -24c-16,-8 -32,-17 -48,-25l-12 24zm93 51c16,9 31,18 46,27l14 -23c-15,-9 -31,-18 -46,-27l-14 23zm90 56c15,10 30,20 44,30l16 -22c-15,-10 -30,-20 -45,-30l-15 22zm87 62c14,10 28,21 42,32l17 -21c-14,-11 -28,-22 -43,-33l-16 22zm82 67c14,11 27,23 40,35l18 -20c-13,-12 -26,-24 -40,-36l-18 21 0 0zm78 72c13,12 25,25 37,38l20 -19c-13,-13 -25,-26 -38,-39l-19 20zm73 77l2 2c11,13 22,25 32,38l21 -17c-11,-13 -21,-26 -33,-38l-2 -3 -20 18zm67 82c10,14 21,28 31,43l22 -16c-10,-14 -21,-29 -32,-43l-21 16 0 0zm60 87c10,15 19,30 28,45l23 -14c-9,-16 -18,-31 -28,-46l-23 15zm55 91c8,15 17,31 25,46l24 -12c-8,-16 -17,-32 -26,-47l-23 13zm48 94c8,16 15,32 22,48l25 -11c-7,-16 -15,-33 -22,-49l-25 12zm43 97c6,16 13,33 19,49l25 -9c-6,-17 -12,-34 -19,-50l-25 10zm37 99c6,17 11,34 16,51l26 -8c-5,-17 -11,-34 -17,-51l-25 8zm32 102c4,17 9,34 14,51l26 -7c-5,-17 -9,-34 -14,-52l-26 8zm26 103c4,17 8,34 12,52l26 -6c-4,-18 -7,-35 -11,-52l-27 6 0 0zm22 104c3,17 6,35 9,52l26 -4c-2,-18 -5,-35 -9,-53l-26 5zm16 105c3,17 5,35 7,53l27 -3c-2,-18 -4,-36 -7,-54l-27 4zm12 106c2,17 3,35 5,53l27 -2c-2,-18 -3,-36 -5,-54l-27 3zm8 106c0,17 1,35 2,53l27 -1c-1,-18 -2,-36 -2,-54l-27 2zm2 106c0,3 0,5 0,7 0,16 0,31 0,46l27 1c0,-16 0,-31 0,-47 0,-2 0,-4 0,-7l-27 0zm-2 107c0,17 -1,35 -2,53l26 1c2,-17 3,-35 3,-53l-27 -1zm-6 106c-2,17 -4,35 -6,53l27 3c2,-18 4,-36 6,-54l-27 -2zm-12 105c-2,18 -5,36 -7,53l26 4c3,-17 6,-35 8,-53l-27 -4zm-16 106c-3,17 -7,34 -10,52l26 5c4,-17 7,-35 10,-53l-26 -4zm-22 103c-4,18 -9,35 -14,52l26 7c5,-17 10,-35 14,-52l-26 -7zm-29 102c-6,17 -12,34 -18,50l25 10c7,-17 13,-34 18,-51l-25 -9 0 0zm-38 99c-7,16 -14,32 -22,48l24 12c8,-16 16,-33 23,-49l-25 -11zm-46 95c-9,16 -17,31 -26,46l23 14c9,-15 18,-31 27,-47l-24 -13 0 0zm-55 90c-10,15 -20,29 -30,44l21 16c11,-15 21,-29 32,-44l-23 -16zm-63 85c-11,13 -23,27 -35,40l20 18c12,-13 24,-27 36,-41l-21 -17 0 0zm-72 77c-13,12 -26,24 -39,36l18 20c13,-12 27,-24 40,-36l-19 -20 0 0zm-80 69c-14,10 -28,21 -43,30l15 23c15,-10 30,-21 45,-32l-17 -21zm-87 58c-7,4 -14,8 -21,12 -8,5 -17,9 -26,14l13 24c8,-5 17,-9 26,-14 7,-4 14,-8 21,-12l-13 -24zm-94 48c-16,7 -33,13 -49,19l9 26c17,-7 34,-13 50,-20l-10 -25zm-99 36c-17,5 -34,10 -51,14l6 26c18,-4 35,-9 53,-14l-8 -26 0 0zm-103 26c-17,3 -34,6 -52,9l4 26c18,-2 36,-5 54,-9l-6 -26 0 0zm-104 15c-18,2 -35,4 -53,5l2 27c18,-1 36,-3 54,-5l-3 -27zm-106 7c-12,1 -24,1 -36,1 -5,0 -11,0 -17,0l0 27c6,0 11,0 17,0 12,0 25,0 37,-1l-1 -27 0 0zm-106 -1c-17,-1 -35,-2 -53,-3l-2 27c18,1 36,2 54,3l1 -27 0 0zm-105 -9c-6,0 -11,-1 -16,-1 -12,-2 -25,-4 -37,-6l-4 27c12,2 25,4 38,5 5,1 10,2 15,2l4 -27zm-105 -15c-18,-4 -35,-7 -52,-11l-6 27c17,3 35,7 53,10l5 -26zm-104 -23c-18,-4 -35,-8 -52,-13l-7 27c18,4 35,9 52,13l7 -27zm-103 -26c-17,-5 -35,-10 -52,-15l-7 26c17,5 34,10 51,15l8 -26zm-103 -30c-17,-5 -34,-10 -51,-15l-8 26c17,5 34,10 51,15l8 -26zm-102 -30c-18,-5 -35,-10 -52,-15l-7 26c17,5 34,10 51,15l8 -26zm-105 -29c-18,-4 -36,-7 -53,-9l-4 27c17,2 34,5 52,9l5 -27 0 0zm-108 -14c-10,0 -19,0 -29,0 -9,0 -17,0 -25,0l1 27c8,0 16,0 24,0 9,0 19,0 28,0l1 -27 0 0zm-109 4c-17,2 -35,4 -53,7l4 26c17,-2 35,-4 52,-6l-3 -27zm-106 15c-18,3 -35,7 -53,10l5 27c18,-4 35,-7 52,-10l-4 -27 0 0zm-106 21c-17,3 -35,6 -52,10l5 26c17,-3 35,-6 52,-10l-5 -26zm-105 19c-17,3 -35,6 -52,9l4 26c18,-2 35,-5 53,-8l-5 -27zm-105 17c-17,2 -35,5 -53,7l4 27c18,-2 35,-5 53,-7l-4 -27zm-106 14c-17,2 -35,3 -52,5l2 27c18,-2 36,-3 54,-5l-4 -27zm-105 9c-18,2 -36,3 -54,4l2 27c18,-1 36,-2 53,-4l-1 -27zm-107 5c-14,1 -29,1 -43,1 -3,0 -5,0 -8,0 -18,0 -35,0 -53,-1l-1 27c18,1 36,1 54,1 3,0 5,0 8,0 15,0 29,0 44,-1l-1 -27z"/>
  <path class="fil2" d="M6114 7492c-135,0 -244,-8 -244,-18 0,-7 43,-12 109,-16l269 0c67,4 110,9 110,16 0,10 -109,18 -244,18z"/>
  <path class="fil3" d="M6145 6771c0,0 -209,-142 -75,-348 134,-207 101,-279 54,-337 114,130 89,278 21,372 -68,94 -79,222 0,313z"/>
  <polygon class="fil1" points="6316,6948 5912,6948 5952,7458 6276,7458 "/>
  <polygon class="fil4" points="5870,6981 6358,6981 6358,6922 5870,6922 "/>
  <path class="fil5" d="M6262 6868l-296 0c-30,0 -54,24 -54,53l0 1 404 0 0 -1c0,-29 -24,-53 -54,-53z"/>
  <polygon class="fil6" points="6293,7239 6303,7115 5925,7115 5935,7239 "/>
  <polygon class="fil7" points="6276,7458 6129,7458 6146,7239 6293,7239 6299,7165 "/>
  <polygon class="fil7" points="6303,7115 6156,7115 6166,6981 6313,6981 6313,6981 "/>
  <polygon class="fil8" points="6358,6981 6211,6981 6211,6922 6169,6922 6358,6922 "/>
  <path class="fil9" d="M6316 6922l-147 0 0 -1c0,-29 -24,-53 -54,-53l147 0c30,0 54,24 54,53l0 1z"/>
  <polygon class="fil10" points="6293,7239 6146,7239 6156,7115 6303,7115 6299,7165 "/>
  <path class="fil11" d="M4150 3746c0,0 84,-265 -39,-342 -79,-41 -121,10 -121,10 0,0 -37,-188 -292,-126 -165,40 -217,-45 -217,-45 0,0 -1,235 112,305 83,71 51,261 51,261l506 -63z"/>
  <path class="fil2" d="M5224 7656c10,-3 20,-7 30,-12 43,-19 56,-74 28,-112 -76,-104 -160,-211 -240,-312 146,14 362,47 443,122 131,121 269,308 -261,314zm-2431 -3c165,-50 299,-177 301,-179 229,-16 509,-49 800,-89 290,40 571,73 799,89 2,2 129,123 288,175 -420,-26 -807,-115 -1175,-115 -68,0 -135,3 -201,10 -332,35 -624,86 -812,109z"/>
  <path class="fil12" d="M4471 6180l-577 -58 -578 58c0,0 -34,273 -146,419 724,259 724,259 724,259 0,0 0,0 723,-259 -112,-146 -146,-419 -146,-419z"/>
  <path class="fil13" d="M3593 3548c83,71 51,261 51,261l108 -13c110,-99 235,-223 216,-270 -31,-82 -123,-164 -292,-173 -169,-10 -195,-110 -195,-110 0,0 -1,235 112,305z"/>
  <path class="fil1" d="M3873 4213l-478 174 -79 1793c0,0 169,79 578,79 0,-1863 0,-2018 0,-2018l-21 -28z"/>
  <path class="fil1" d="M3915 4213l477 174 79 1793c0,0 -169,79 -577,79 0,-1863 0,-2018 0,-2018l21 -28z"/>
  <path class="fil14" d="M3395 4387l-2 1c-139,50 -251,157 -306,295l-512 1240 435 52 369 -904 16 -684z"/>
  <path class="fil14" d="M4392 4387l2 1c140,50 251,157 306,295l513 1240 -436 52 -369 -904 -16 -684z"/>
  <path class="fil15" d="M4899 5164l-199 -481c-55,-138 -166,-245 -306,-295l-2 -1 16 684 104 256c140,-117 280,-155 387,-163z"/>
  <path class="fil15" d="M2888 5164l199 -481c55,-138 167,-245 306,-295l2 -1 -16 684 -104 256c-140,-117 -280,-155 -387,-163z"/>
  <path class="fil16" d="M4423 5094c0,0 -13,-18 -31,-52l16 29c0,0 -182,1008 -667,1184 47,3 97,4 153,4 408,0 577,-79 577,-79l-48 -1086z"/>
  <path class="fil17" d="M2854 5247l34 -83 0 0 -34 83zm108 -261l125 -303c19,-47 44,-90 74,-128 -28,35 -52,75 -70,117 -1,4 -3,7 -4,11l0 0 -125 303zm431 -598l2 -1 101 -36 39 -14 48 -18 -188 68 -2 1z"/>
  <path class="fil1" d="M3390 4606l5 -219 188 -68 182 -66 0 54c0,22 5,43 15,62 -18,72 -71,154 -211,187 -79,19 -135,32 -179,50z"/>
  <path class="fil18" d="M2596 5871l258 -624 34 -83c53,4 114,15 179,40 -128,262 -315,552 -471,667zm794 -1265l5 -219 -5 219 0 0zm5 -219l0 0z"/>
  <path class="fil19" d="M3067 5204c-65,-25 -126,-36 -179,-40l0 0 74 -178 125 -303c1,-4 3,-7 4,-11 18,-42 42,-82 70,-117 60,-76 140,-134 232,-167l0 0 2 -1 -5 219c-104,42 -133,113 -220,356 -25,73 -61,156 -103,242z"/>
  <path class="fil20" d="M5080 5601l-380 -918c-54,-135 -163,-241 -299,-292 136,51 245,157 299,292l380 918zm-686 -1213l-2 -1 -209 -76 70 26 38 14 101 36 2 1z"/>
  <path class="fil21" d="M4397 4606c-43,-18 -100,-31 -179,-50 -140,-33 -193,-115 -211,-187 10,-19 16,-40 16,-62l0 -54 160 58 209 76 5 219z"/>
  <path class="fil22" d="M5191 5871c-156,-115 -343,-405 -471,-667 65,-25 126,-36 179,-40l-199 -481c-55,-138 -166,-245 -306,-295l-2 -1 2 1c3,1 5,2 7,3 136,51 245,157 299,292l380 918 111 270z"/>
  <path class="fil23" d="M4720 5204c-42,-86 -77,-169 -103,-242 -87,-243 -116,-314 -220,-356l-5 -219 2 1c140,50 251,157 306,295l199 481c-53,4 -114,15 -179,40z"/>
  <path class="fil14" d="M3895 4435l-3 0c-70,0 -127,-58 -127,-128l0 -305 258 0 0 305c0,70 -58,128 -128,128z"/>
  <path class="fil24" d="M4021 4237l2 0 0 -235 -121 0 -137 50c0,0 51,185 256,185z"/>
  <path class="fil25" d="M4194 3819c0,45 -37,82 -83,82 -46,0 -83,-37 -83,-82 0,-46 37,-83 83,-83 46,0 83,37 83,83z"/>
  <path class="fil26" d="M4127 3900c12,-48 19,-110 23,-154 -12,-6 -25,-10 -39,-10 -46,0 -83,37 -83,83 0,45 37,82 83,82 5,0 11,0 16,-1z"/>
  <path class="fil25" d="M3593 3819c0,45 37,82 83,82 46,0 83,-37 83,-82 0,-46 -37,-83 -83,-83 -46,0 -83,37 -83,83z"/>
  <path class="fil26" d="M3660 3900c-12,-48 -19,-110 -23,-154 12,-6 25,-10 39,-10 46,0 83,37 83,83 0,45 -37,82 -83,82 -5,0 -11,0 -16,-1z"/>
  <path class="fil14" d="M4039 3529l-291 0 -72 157 12 157c6,83 60,227 136,262 22,11 46,18 70,18 23,0 47,-7 69,-18 76,-35 130,-179 137,-262l12 -157 -73 -157z"/>
  <path class="fil11" d="M3966 3736c0,0 23,6 55,6 16,0 35,-1 54,-6 5,-1 8,-7 7,-11 -1,-5 -7,-8 -11,-7 -18,4 -35,6 -50,6 -15,0 -27,-2 -36,-3 -5,-1 -8,-2 -11,-2l-2 -1 -1 0c-5,-2 -10,1 -12,6 -1,5 2,10 7,12z"/>
  <path class="fil11" d="M3956 3655l0 0c1,0 17,-2 36,-2 22,0 49,3 66,13 9,5 20,2 25,-7 5,-9 2,-20 -7,-25 -27,-16 -59,-18 -84,-18 -24,0 -42,3 -42,3 -11,1 -17,11 -16,21 2,10 12,17 22,15z"/>
  <path class="fil11" d="M3816 3718l-1 0c-4,1 -23,6 -49,6 -15,0 -32,-2 -49,-6 -5,-1 -10,2 -12,7 -1,4 2,10 7,11 20,5 38,6 54,6 32,0 55,-6 55,-6 5,-2 8,-7 7,-12 -2,-5 -7,-8 -12,-6l0 0z"/>
  <path class="fil11" d="M3838 3619c-1,0 -19,-3 -43,-3 -25,0 -57,2 -84,18 -9,5 -12,16 -7,25 5,9 17,12 25,7 17,-10 44,-13 66,-13 10,0 20,0 26,1 4,0 6,1 8,1l2 0 0 0 1 0c10,2 19,-5 21,-15 2,-10 -5,-20 -15,-21l0 0z"/>
  <path class="fil17" d="M3676 3901c0,0 -1,0 -1,0 0,0 1,0 1,0l0 0c0,0 0,0 0,0 0,0 0,0 0,0zm-83 -82c0,-37 24,-68 57,-79l0 0c-33,11 -57,42 -57,79z"/>
  <path class="fil27" d="M3894 4123c-24,0 -48,-7 -70,-18 0,0 0,0 0,0 0,0 0,0 0,0 22,11 46,18 70,18l0 0zm-71 -18c0,0 0,0 0,0 0,0 0,0 0,0zm0 0c0,0 0,0 0,0 0,0 0,0 0,0zm0 0c0,0 0,0 0,0 0,0 0,0 0,0zm0 0c0,0 0,0 0,0 0,0 0,0 0,0zm0 0c0,0 -1,0 -1,-1 0,1 1,1 1,1zm-1 -1c0,0 0,0 0,0 0,0 0,0 0,0zm0 0c0,0 0,0 0,0 0,0 0,0 0,0zm0 0c0,0 0,0 0,0 0,0 0,0 0,0zm-1 0c0,0 0,0 0,0 0,0 0,0 0,0zm0 0c0,0 0,0 0,0 0,0 0,0 0,0zm0 0c0,0 0,0 0,0 0,0 0,0 0,0zm0 0c0,0 0,0 0,0 0,0 0,0 0,0zm0 0c0,0 -1,0 -1,-1 0,1 1,1 1,1zm-1 -1c0,0 0,0 0,0 0,0 0,0 0,0zm0 0c0,0 0,0 0,0 0,0 0,0 0,0zm0 0c0,0 0,0 0,0 0,0 0,0 0,0zm0 0c-1,0 -1,0 -1,0 0,0 0,0 1,0zm-1 0c0,0 0,0 0,0 0,0 0,0 0,0zm0 0c0,0 0,0 0,0 0,0 0,0 0,0zm0 0c-1,-1 -1,-1 -1,-1 0,0 0,0 1,1zm-1 -1c0,0 0,0 0,0 0,0 0,0 0,0zm0 0c0,0 0,0 0,0 0,0 0,0 0,0zm0 0c0,0 -1,0 -1,0 0,0 1,0 1,0zm-1 0c0,0 0,0 0,0 0,0 0,0 0,0zm0 0c0,0 0,0 0,0 0,0 0,0 0,0zm0 0c0,0 0,-1 -1,-1 1,0 1,1 1,1zm-1 -1c0,0 0,0 0,0 0,0 0,0 0,0zm0 0c0,0 0,0 0,0 0,0 0,0 0,0zm0 0c0,0 0,0 0,0 0,0 0,0 0,0zm0 0c0,0 -1,0 -1,0 0,0 1,0 1,0zm-1 0c0,0 0,0 0,0 0,0 0,0 0,0zm0 0c0,0 0,-1 0,-1 0,0 0,1 0,1zm0 -1c0,0 0,0 0,0 0,0 0,0 0,0zm-1 0c0,0 0,0 0,0 0,0 0,0 0,0zm0 0c0,0 0,0 0,0 0,0 0,0 0,0zm0 0c0,0 0,0 0,0 0,0 0,0 0,0zm0 0c0,0 0,0 0,0 0,0 0,0 0,0zm0 0c0,0 0,0 -1,0 1,0 1,0 1,0zm-1 0c0,0 0,-1 0,-1 0,0 0,1 0,1zm0 -1c0,0 0,0 0,0 0,0 0,0 0,0zm0 0c0,0 0,0 0,0 0,0 0,0 0,0zm0 0c0,0 0,0 0,0 0,0 0,0 0,0zm0 0c0,0 -1,0 -1,0 0,0 1,0 1,0zm-1 0c0,0 0,0 0,0 0,0 0,0 0,0zm0 0c0,0 0,0 0,0 0,0 0,0 0,0zm0 0c0,0 0,0 0,0 0,0 0,0 0,0zm-1 -1c0,0 0,0 0,0 0,0 0,0 0,0zm0 0l0 0z"/>
  <path class="fil28" d="M3676 3901c0,0 -1,0 -1,0 -45,0 -82,-37 -82,-82l0 0c0,-37 24,-68 57,-79l0 0c7,-2 15,-4 23,-4 1,0 2,0 3,0 -14,0 -27,4 -39,10 4,44 11,106 23,154 5,1 11,1 16,1zm0 -165c0,0 0,0 0,0 0,0 0,0 0,0z"/>
  <path class="fil29" d="M3676 3901l0 0c-5,0 -11,0 -16,-1 -12,-48 -19,-110 -23,-154 12,-6 25,-10 39,-10 0,0 0,0 0,0 0,0 0,0 0,0l0 0 3 0 9 107c1,16 4,35 9,56 -7,1 -13,2 -21,2 0,0 0,0 0,0z"/>
  <path class="fil18" d="M3894 4123c-24,0 -48,-7 -70,-18 0,0 0,0 0,0 -1,0 -1,0 -1,0 0,0 0,0 0,0 0,0 0,0 0,0 0,0 0,0 0,0 0,0 0,0 0,0 0,0 0,0 0,0l0 0c0,0 0,0 0,0 0,0 0,0 0,0 0,0 -1,0 -1,-1 0,0 0,0 0,0 0,0 0,0 0,0 0,0 0,0 0,0 0,0 0,0 0,0 0,0 0,0 0,0 0,0 0,0 0,0 0,0 -1,0 -1,0 0,0 0,0 0,0 0,0 0,0 0,0 0,0 0,0 0,0l0 0c0,0 0,0 0,0 0,0 0,0 0,0 0,0 0,0 0,0 0,0 0,0 0,0 0,0 -1,0 -1,-1 0,0 0,0 0,0 0,0 0,0 0,0 0,0 0,0 0,0 0,0 0,0 0,0 0,0 0,0 0,0 0,0 0,0 0,0 0,0 0,0 0,0 -1,0 -1,0 -1,0 0,0 0,0 0,0 0,0 0,0 0,0 0,0 0,0 0,0 0,0 0,0 0,0 0,0 0,0 0,0 -1,-1 -1,-1 -1,-1 0,0 0,0 0,0 0,0 0,0 0,0 0,0 0,0 0,0 0,0 0,0 0,0 0,0 0,0 0,0 0,0 -1,0 -1,0 0,0 0,0 0,0 0,0 0,0 0,0 0,0 0,0 0,0 0,0 0,0 0,0 0,0 0,0 0,0 0,0 0,-1 -1,-1 0,0 0,0 0,0 0,0 0,0 0,0 0,0 0,0 0,0 0,0 0,0 0,0 0,0 0,0 0,0 0,0 0,0 0,0 0,0 0,0 0,0 0,0 -1,0 -1,0 0,0 0,0 0,0 0,0 0,0 0,0 0,0 0,0 0,0 0,0 0,-1 0,-1 0,0 0,0 0,0 0,0 0,0 0,0 0,0 -1,0 -1,0 0,0 0,0 0,0 0,0 0,0 0,0 0,0 0,0 0,0 0,0 0,0 0,0 0,0 0,0 0,0 0,0 0,0 0,0 0,0 0,0 0,0 0,0 0,0 0,0 0,0 0,0 -1,0 0,0 0,0 0,0 0,0 0,-1 0,-1 0,0 0,0 0,0 0,0 0,0 0,0 0,0 0,0 0,0 0,0 0,0 0,0 0,0 0,0 0,0 0,0 0,0 0,0 0,0 0,0 0,0 0,0 -1,0 -1,0 0,0 0,0 0,0 0,0 0,0 0,0 0,0 0,0 0,0 0,0 0,0 0,0 0,0 0,0 0,0 0,0 0,0 0,0 0,-1 -1,-1 -1,-1 0,0 0,0 0,0 0,0 0,0 0,0l0 0c-54,-35 -96,-125 -114,-199 0,0 0,0 0,0 -5,-21 -8,-40 -9,-56l-9 -107 0 0 -3 -50 72 -157c0,0 4,36 9,89 -15,3 -31,8 -46,16 -9,5 -12,16 -7,25 3,6 10,9 16,9 3,0 6,0 9,-2 9,-5 20,-8 32,-10 2,21 4,44 6,68 0,0 -1,0 -1,0 0,0 0,0 0,0 -15,0 -32,-2 -49,-6 -1,0 -2,-1 -3,-1 -4,0 -8,3 -9,8 -1,4 2,10 7,11 20,5 38,6 54,6 1,0 2,0 3,0 3,39 6,81 8,121 10,158 117,260 117,260z"/>
  <path class="fil30" d="M3766 3742c-16,0 -34,-1 -54,-6 -5,-1 -8,-7 -7,-11 1,-5 5,-8 9,-8 1,0 2,1 3,1 17,4 34,6 49,6 0,0 0,0 0,0 0,0 1,0 1,0 1,6 1,12 2,18 -1,0 -2,0 -3,0z"/>
  <path class="fil30" d="M3720 3668c-6,0 -13,-3 -16,-9 -5,-9 -2,-20 7,-25 15,-8 31,-13 46,-16 1,12 3,24 4,38 -12,2 -23,5 -32,10 -3,2 -6,2 -9,2z"/>
  <path class="fil31" d="M4392 6882l-1650 -501c-219,-66 -449,63 -507,284l-2 8c-60,229 88,459 320,500 610,106 1716,288 2298,310l245 163c37,25 86,21 119,-10l1 -1c38,-36 40,-97 4,-135l-38 -41c0,0 -34,-166 -203,-237 -168,-71 -184,-245 -223,-340 -40,-95 -293,-143 -364,0z"/>
  <path class="fil6" d="M2235 6665c58,-221 288,-350 507,-284l560 170c-85,105 -196,318 -199,714 -204,-33 -393,-65 -550,-92 -232,-41 -380,-271 -320,-500l2 -8z"/>
  <path class="fil32" d="M2713 7196l-151 -28 0 0c-197,-31 -337,-201 -337,-394 0,-22 2,-45 6,-68l1 -8c6,-32 15,-63 27,-91 27,-6 54,-8 82,-8 229,0 414,185 414,414 0,66 -15,128 -42,183z"/>
  <path class="fil33" d="M4463 7110l0 0c0,2 -5,25 -27,48 -21,22 -59,45 -127,45 -26,0 -55,-3 -89,-11l-4 16c35,7 66,10 93,10 74,1 117,-25 141,-52 24,-26 29,-53 29,-54l-16 -2z"/>
  <polygon class="fil34" points="3505,6848 3455,6834 3553,6834 3527,6842 "/>
  <path class="fil35" d="M3109 6770c-276,-135 -377,-316 -411,-398 16,3 33,7 49,12l298 95 64 225 0 66z"/>
  <path class="fil11" d="M4693 7474c0,0 207,198 425,199l1 0c45,0 91,-8 135,-29 43,-19 56,-74 28,-112 -217,-296 -491,-618 -596,-739 -26,-30 -68,-42 -106,-31l-297 86 410 626z"/>
  <polygon class="fil36" points="4283,6848 3998,6762 4213,7426 4693,7474 "/>
  <path class="fil14" d="M3395 6882l1650 -501c219,-66 449,63 507,284l2 8c60,229 -88,459 -320,500 -610,106 -1716,288 -2297,310l-246 163c-37,25 -86,21 -118,-10l-2 -1c-38,-36 -40,-97 -4,-135l38 -41c0,0 34,-166 203,-237 168,-71 184,-245 223,-340 40,-95 293,-143 364,0z"/>
  <path class="fil6" d="M5552 6665c-58,-221 -288,-350 -507,-284l-560 170c85,105 196,318 199,714 204,-33 393,-65 550,-92 232,-41 380,-271 320,-500l-2 -8z"/>
  <path class="fil37" d="M5227 7174c1,0 1,0 2,-1 0,0 0,0 0,0 1,0 2,0 4,0 0,0 0,0 1,0 4,-1 8,-2 12,-3l0 0c-4,1 -8,2 -12,3 -3,0 -5,0 -7,1z"/>
  <path class="fil38" d="M5226 7174c1,0 2,0 3,-1 -1,1 -1,1 -2,1 -1,0 -1,0 -1,0zm3 -1c1,0 2,0 4,0 -2,0 -3,0 -4,0zm323 -508c0,0 0,0 0,0 0,0 0,0 0,0zm0 -1c0,0 0,0 0,0 0,0 0,0 0,0zm0 0c0,0 0,0 0,0 0,0 0,0 0,0zm0 -1c0,0 0,0 0,0 0,0 0,0 0,0z"/>
  <path class="fil32" d="M5076 7200c-28,-56 -44,-120 -44,-187 0,-229 185,-414 414,-414 30,0 59,3 86,9 8,17 15,36 20,55 0,0 0,0 0,0 0,0 0,0 0,1 0,0 0,0 0,0 0,0 0,0 0,0 0,0 0,0 0,0 0,0 0,0 0,1 0,0 0,0 0,0l0 0 2 8c9,35 14,69 14,103 0,187 -131,355 -322,394 -4,1 -8,2 -12,3 -1,0 -1,0 -1,0 -2,0 -3,0 -4,0 0,0 0,0 0,0 -1,1 -2,1 -3,1 -47,8 -97,17 -150,26z"/>
  <polygon class="fil39" points="3527,6842 3553,6834 3553,6834 3535,6839 "/>
  <polygon class="fil22" points="3535,6839 3553,6834 3553,6834 "/>
  <path class="fil22" d="M3716 6988l43 -133 7 -21 757 0c-76,26 -161,48 -258,65 -215,39 -398,67 -549,89z"/>
  <polygon class="fil21" points="4694,6488 4694,6488 5045,6381 "/>
  <path class="fil35" d="M4633 6791l0 -87 -55 0 55 0 61 -216 351 -107c15,-4 30,-8 45,-11 -35,86 -144,284 -457,421z"/>
  <path class="fil1" d="M2747 7218l-188 -35c-204,-32 -349,-209 -349,-409 0,-23 2,-46 6,-70l1 -9c35,-205 213,-345 409,-345l0 0c41,0 84,6 125,19l289 92 4 12 -302 -92c0,0 0,0 0,0 -39,-12 -78,-17 -117,-17l0 0 0 0c0,0 0,0 0,0 -178,0 -341,118 -389,299 0,0 -1,1 -1,1 0,0 0,0 0,0 0,0 0,0 0,1 0,0 0,0 0,0l0 0 -2 8 0 0c-6,22 -10,44 -12,66 -19,205 123,397 332,434l0 0c2,0 4,0 6,1 61,10 127,22 197,34 -3,3 -6,7 -9,10z"/>
  <path class="fil40" d="M2756 7208c-70,-12 -136,-24 -197,-34 0,0 0,0 0,0 61,10 127,22 197,34l0 0zm-203 -35c-209,-37 -351,-229 -332,-434 -1,12 -1,25 -1,37 0,191 136,362 333,397zm-317 -510c48,-181 211,-299 389,-299 -178,0 -341,118 -389,299zm808 -190l-302 -92c0,0 0,0 0,0 0,0 0,0 0,0l302 92zm-419 -109l0 0 0 0z"/>
  <path class="fil41" d="M2756 7208c-70,-12 -136,-24 -197,-34 48,8 99,17 152,26 0,-1 1,-3 2,-4l45 9c-1,1 -2,2 -2,3zm-521 -543c0,-1 0,-1 0,-1 0,0 0,0 0,1zm0 -1c0,0 1,-1 1,-1 48,-181 211,-299 389,-299 0,0 0,0 0,0l0 0c39,0 78,5 117,17 0,0 0,0 0,0l0 0c-15,-4 -30,-8 -45,-11 1,1 1,1 1,2 -24,-4 -48,-7 -72,-7 -158,0 -304,95 -367,242 -1,0 -3,0 -4,1 -8,18 -15,37 -20,56z"/>
  <path class="fil42" d="M2559 7174c-2,-1 -4,-1 -6,-1l0 0c1,0 1,0 2,0 1,0 2,0 3,0 0,0 0,0 0,0 0,0 0,1 1,1z"/>
  <path class="fil43" d="M2559 7174c0,0 0,0 0,0 -1,0 -1,-1 -1,-1 0,1 1,1 1,1zm-1 -1c-1,0 -2,0 -3,0 1,0 2,0 3,0z"/>
  <path class="fil42" d="M2235 6665c0,0 0,0 0,0 0,0 0,0 0,0zm0 -1c0,0 0,0 0,0 0,0 0,0 0,0z"/>
  <path class="fil44" d="M2711 7200c-53,-9 -104,-18 -152,-26 0,0 -1,0 -1,-1 0,0 0,0 0,0 -1,0 -2,0 -3,0 -1,0 -1,0 -2,0l0 0c-197,-35 -333,-206 -333,-397 0,-34 4,-68 13,-103l2 -8 0 0c0,0 0,0 0,0 0,-1 0,-1 0,-1 0,0 0,0 0,0 5,-19 12,-38 20,-56 1,-1 3,-1 4,-1 -12,28 -21,59 -27,91l-1 8c-4,23 -6,46 -6,68 0,193 140,363 337,394l0 0 151 28c-1,1 -2,3 -2,4z"/>
  <polygon class="fil45" points="3044,6473 2742,6381 3044,6473 "/>
  <path class="fil46" d="M3045 6479l-298 -95c-16,-5 -33,-9 -49,-12 0,-1 0,-1 -1,-2 15,3 30,7 45,11l0 0 302 92 1 6z"/>
  <path class="fil1" d="M3809 3860c-9,0 -14,11 -9,18 25,31 58,51 94,51 36,0 69,-20 93,-51 6,-7 1,-18 -8,-18l-170 0z"/>
  <path class="fil11" d="M3912 3723l0 86 6 0 3 -5c-1,0 -10,-6 -26,-6 -7,0 -16,2 -26,6 -3,1 -5,4 -3,7 1,3 4,5 7,3 8,-3 16,-4 22,-4 7,0 12,1 15,2 2,1 3,1 4,2l1 0 0 0 0 0 0 0 0 0 0 0 0 0 9 5 0 -96c0,-3 -3,-5 -6,-5 -3,0 -6,2 -6,5z"/>
  <polygon class="fil14" points="3968,3548 3990,3548 3990,3414 3968,3414 "/>
  <path class="fil14" d="M5213 5923l0 2c50,137 -9,289 -138,357l-881 462 -5 -12c-77,-200 4,-427 191,-533l397 -224 436 -52z"/>
  <path class="fil21" d="M5075 6282c0,0 0,0 0,0 0,0 0,0 0,0zm1 -1c0,0 0,0 0,0 0,0 0,0 0,0zm0 0c0,0 0,0 0,0 0,0 0,0 0,0zm1 0c0,0 0,0 0,0 0,0 0,0 0,0z"/>
  <path class="fil22" d="M5049 6296c-14,-27 -22,-58 -22,-90 0,-107 86,-193 193,-193 3,0 7,0 10,0 4,109 -53,214 -153,268 0,0 0,0 0,0 0,0 0,0 -1,0 0,0 0,0 0,0 0,0 0,0 0,0 0,0 0,0 0,0 0,0 0,1 -1,1 0,0 0,0 0,0 0,0 0,0 0,0l0 0 -26 14z"/>
  <path class="fil24" d="M4781 5983l250 -142c5,-2 6,-8 4,-13 -3,-4 -9,-6 -13,-3l-250 142c-4,2 -6,8 -3,12 2,5 8,6 12,4z"/>
  <path class="fil14" d="M2577 5923l-1 2c-49,137 10,289 139,357l881 462 4 -12c78,-200 -3,-427 -190,-533l-397 -224 -436 -52z"/>
  <path class="fil22" d="M2741 6296l-26 -14c-102,-53 -160,-159 -155,-269 3,0 7,0 10,0 107,0 193,86 193,193 0,32 -8,63 -22,90z"/>
  <path class="fil24" d="M3018 5967l-250 -142c-5,-3 -10,-1 -13,3 -2,5 -1,11 4,13l249 142c5,2 10,1 13,-4 3,-4 1,-10 -3,-12z"/>
  <path class="fil24" d="M3507 6694c0,0 7,-36 7,-85 0,-40 -4,-88 -20,-134 -16,-45 -44,-87 -92,-113 -4,-2 -10,-1 -12,4 -3,4 -1,10 3,12 43,23 68,61 83,104 15,42 19,89 19,127 0,24 -1,44 -3,59 -1,7 -1,13 -2,17 0,2 0,3 -1,4l0 2c-1,5 3,10 8,11 5,1 9,-3 10,-8l0 0z"/>
  <path class="fil24" d="M4298 6691l0 -2c-1,-7 -6,-39 -6,-80 0,-38 4,-85 19,-127 15,-43 40,-81 83,-104 4,-2 6,-8 3,-12 -2,-5 -8,-6 -12,-4 -47,26 -76,68 -91,113 -16,46 -21,94 -21,134 0,49 7,85 7,85 1,5 6,9 11,8 5,-1 8,-6 7,-11z"/>
  <path class="fil11" d="M3094 7474c0,0 -207,198 -425,199l-1 0c-45,0 -91,-8 -135,-29 -43,-19 -56,-74 -28,-112 217,-296 492,-618 596,-739 26,-30 68,-42 106,-31l298 86 -411 626z"/>
  <polygon class="fil47" points="3505,6848 3790,6762 3574,7426 3094,7474 "/>
  <polygon class="fil39" points="3505,6848 3505,6848 3527,6842 "/>
  <polygon class="fil48" points="3505,6848 3505,6848 3527,6842 3535,6839 "/>
  <polygon class="fil49" points="3386,7029 3505,6848 3535,6839 3553,6834 3553,6834 3505,6848 3386,7029 "/>
  <polygon class="fil49" points="3759,6855 3766,6834 3766,6834 "/>
  <polygon class="fil50" points="3386,7029 3505,6848 3505,6848 3386,7029 "/>
  <path class="fil51" d="M3386 7029l119 -181 48 -14 213 0 -7 21 -43 133c-136,19 -245,32 -330,41z"/>
  <path class="fil52" d="M3185 7272l-165 252c-10,16 -29,24 -47,22l-2 -1c-35,-4 -54,-45 -33,-75l169 -250c11,-16 30,-23 49,-19l1 0c31,8 46,44 28,71z"/>
  <polygon class="fil3" points="3871,5816 2859,5816 3109,6704 4633,6704 4882,5816 "/>
  <polygon class="fil4" points="3109,6834 4633,6834 4633,6704 3109,6704 "/>
  <path class="fil5" d="M4120 6330c0,70 -111,127 -247,127 -137,0 -248,-57 -248,-127 0,-70 111,-126 248,-126 136,0 247,56 247,126z"/>
  <polygon class="fil5" points="2859,5816 4882,5816 4882,5757 2859,5757 "/>
  <polygon class="fil5" points="3193,6794 3346,6794 3346,6742 3193,6742 "/>
  <polygon class="fil5" points="3413,6794 3566,6794 3566,6742 3413,6742 "/>
  <polygon class="fil53" points="3705,6776 4633,6776 4633,6762 3705,6762 "/>
  <path class="fil54" d="M3652 6704l-543 0 -248 -881 1306 0c-14,35 -79,197 -186,393 -33,-8 -70,-12 -108,-12 -137,0 -248,56 -248,126 0,64 93,117 213,126 -56,85 -118,170 -186,248z"/>
  <path class="fil55" d="M3838 6456c-120,-9 -213,-62 -213,-126 0,-70 111,-126 248,-126 38,0 75,4 108,12 -42,77 -90,158 -143,240z"/>
  <polygon class="fil56" points="3099,5757 3335,5757 3335,5757 "/>
  <polygon class="fil1" points="3335,5757 3894,5757 3894,5757 "/>
  <polygon class="fil1" points="3894,5757 4169,5757 4169,5757 "/>
  <polygon class="fil57" points="2859,5757 3099,5757 3099,5757 "/>
  <polygon class="fil55" points="2859,5816 2859,5757 4169,5757 4170,5809 2859,5809 "/>
  <polygon class="fil58" points="4882,5823 4880,5823 4882,5816 4882,5809 "/>
  <path class="fil59" d="M4880 5823l-713 0c2,-4 3,-7 3,-7l712 0 -2 7z"/>
  <polygon class="fil60" points="4882,5816 4170,5816 4170,5809 4882,5809 "/>
  <polygon class="fil58" points="2861,5823 2859,5823 2859,5816 "/>
  <path class="fil61" d="M4167 5823l-1306 0 -2 -7 1311 0c0,0 -1,3 -3,7z"/>
  <polygon class="fil62" points="4170,5816 2859,5816 2859,5809 4170,5809 "/>
  <path class="fil2" d="M1808 7492c-202,0 -366,-8 -366,-18 0,-7 63,-12 160,-16l0 8 385 0 0 -8c112,3 188,9 188,16 0,10 -164,18 -367,18z"/>
  <path class="fil5" d="M1862 7291l24 -26 -12 13 12 -13c-3,-3 -292,-296 57,-1619l-34 -9c-357,1350 -60,1642 -47,1654z"/>
  <path class="fil5" d="M1754 5669c133,120 109,263 109,263 0,0 -132,-57 -163,-233 -5,-31 31,-51 54,-30z"/>
  <path class="fil5" d="M2086 5754c-174,42 -223,178 -223,178 0,0 144,14 256,-126 19,-24 -3,-59 -33,-52z"/>
  <path class="fil5" d="M1663 6015c144,106 135,250 135,250 0,0 -137,-43 -185,-215 -9,-30 25,-54 50,-35z"/>
  <path class="fil5" d="M2002 6066c-169,59 -204,199 -204,199 0,0 145,0 242,-150 17,-27 -9,-59 -38,-49z"/>
  <path class="fil5" d="M1606 6318c151,96 153,240 153,240 0,0 -140,-33 -201,-201 -11,-30 21,-56 48,-39z"/>
  <path class="fil5" d="M1947 6344c-164,72 -188,214 -188,214 0,0 144,-11 230,-168 15,-28 -13,-58 -42,-46z"/>
  <path class="fil5" d="M2038 5404c3,179 -117,259 -117,259 0,0 -49,-135 58,-278 19,-25 58,-12 59,19z"/>
  <polygon class="fil6" points="1602,7466 1987,7466 1987,6705 1602,6705 "/>
  <polygon class="fil32" points="1833,7466 1987,7466 1987,6705 1833,6705 "/>
  <path class="fil12" d="M2156 3076l-139 35c-20,5 -40,-8 -45,-28l-13 -53 211 -53 13 54c5,20 -7,40 -27,45z"/>
  <path class="fil12" d="M2670 2911l-1196 298c-20,5 -41,-8 -46,-29l-198 -792c-5,-21 8,-42 29,-47l1195 -298c21,-5 42,8 47,29l197 792c5,21 -7,42 -28,47z"/>
  <polygon class="fil6" points="2634,2774 2601,2870 1540,3134 1446,3070 1251,2284 2439,1989 "/>
  <polygon class="fil1" points="2025,2926 1446,3070 1251,2284 1830,2140 "/>
  <polygon class="fil3" points="1801,2235 1325,2353 1318,2326 1794,2208 "/>
  <polygon class="fil3" points="1823,2323 1347,2441 1340,2414 1816,2295 "/>
  <polygon class="fil3" points="1845,2411 1369,2529 1362,2502 1838,2383 "/>
  <polygon class="fil3" points="1866,2499 1391,2617 1384,2589 1860,2471 "/>
  <polygon class="fil3" points="1888,2587 1413,2705 1406,2677 1881,2559 "/>
  <polygon class="fil3" points="1910,2674 1435,2793 1428,2765 1903,2647 "/>
  <polygon class="fil3" points="1932,2762 1456,2881 1450,2853 1925,2735 "/>
  <polygon class="fil3" points="1954,2850 1478,2968 1471,2941 1947,2823 "/>
  <polygon class="fil1" points="2056,2918 2634,2774 2439,1989 1860,2133 "/>
  <polygon class="fil3" points="1930,2203 2406,2085 2399,2057 1923,2175 "/>
  <polygon class="fil3" points="1952,2291 2428,2172 2421,2145 1945,2263 "/>
  <polygon class="fil3" points="1974,2379 2449,2260 2443,2233 1967,2351 "/>
  <polygon class="fil3" points="1996,2467 2471,2348 2464,2321 1989,2439 "/>
  <polygon class="fil3" points="2018,2554 2493,2436 2486,2409 2011,2527 "/>
  <polygon class="fil3" points="2039,2642 2515,2524 2508,2497 2033,2615 "/>
  <polygon class="fil3" points="2061,2730 2537,2612 2530,2584 2054,2703 "/>
  <polygon class="fil3" points="2083,2818 2559,2700 2552,2672 2076,2791 "/>
  <path class="fil6" d="M2119 3030l-91 23c-20,5 -41,-7 -46,-27l-8 -34 164 -41 9 34c5,20 -8,40 -28,45z"/>
  <path class="fil6" d="M4152 1901c-47,-45 -107,-76 -169,-97 -1,0 -2,0 -3,0 -56,-15 -115,-15 -171,0 -1,0 -2,0 -3,0 -62,21 -122,52 -169,97 -141,134 -118,378 19,507 39,36 56,83 68,134 3,16 24,177 17,177 69,0 153,0 153,0 0,0 85,0 154,0 -7,0 14,-161 17,-177 12,-51 29,-98 68,-134 137,-129 160,-373 19,-507z"/>
  <path class="fil63" d="M3541 2136c0,-87 30,-173 96,-235 -66,62 -96,148 -96,235zm96 -235c47,-45 107,-76 169,-97 1,0 1,0 3,0 -2,0 -2,0 -3,0 -62,21 -122,52 -169,97zm172 -97c0,0 1,-1 1,-1 0,0 -1,1 -1,1z"/>
  <path class="fil64" d="M3856 2719c-31,0 -76,0 -115,0 1,0 1,-3 1,-9 0,-35 -15,-154 -18,-168 -1,-2 -2,-5 -2,-7 -2,-9 -5,-18 -7,-27 -12,-38 -29,-72 -59,-100 -2,-2 -4,-3 -5,-5 -71,-69 -110,-169 -110,-267 0,-87 30,-173 96,-235l0 0c47,-45 107,-76 169,-97 1,0 1,0 3,0 0,0 0,0 0,0l0 0c0,0 1,-1 1,-1 28,-7 56,-10 84,-10 19,0 39,1 58,5 -9,1 -18,3 -27,6 -2,0 -3,0 -3,0 -62,21 -122,52 -170,97 -141,134 -118,378 20,507 38,36 55,83 67,134 4,16 24,177 17,177z"/>
  <path class="fil1" d="M3910 2719l0 -367 59 -34c7,-4 12,-10 16,-17 4,-6 5,-14 5,-21 0,-9 -2,-18 -8,-26 -5,-8 -14,-14 -24,-16l-121 -32c-2,-1 -3,-2 -4,-3 -1,-1 -1,-2 -1,-4 0,-2 0,-3 1,-4 1,-1 1,-2 3,-2l74 -34 0 -138c0,-8 -7,-15 -16,-15 -8,0 -15,7 -15,15l0 118 -56 25c-7,3 -13,9 -17,15 -3,6 -5,13 -5,20 0,8 2,16 7,22 5,7 12,13 21,15l121 32c3,1 5,2 7,4 2,2 2,5 2,8 0,2 0,4 -1,6 -1,2 -3,4 -5,5l-74 43 0 385c0,9 7,16 15,16 9,0 16,-7 16,-16z"/>
  <path class="fil11" d="M4079 2771c0,12 -9,21 -21,21l-338 0c-12,0 -21,-9 -21,-21 0,-11 9,-21 21,-21l338 0c12,0 21,10 21,21z"/>
  <path class="fil11" d="M4079 2833c0,12 -9,21 -21,21l-338 0c-12,0 -21,-9 -21,-21 0,-11 9,-20 21,-20l338 0c12,0 21,9 21,20z"/>
  <path class="fil11" d="M4079 2895c0,12 -9,21 -21,21l-338 0c-12,0 -21,-9 -21,-21 0,-11 9,-20 21,-20l338 0c12,0 21,9 21,20z"/>
  <path class="fil11" d="M3889 3061c67,0 121,-54 121,-121l-242 0c0,67 54,121 121,121z"/>
  <path class="fil65" d="M4988 3260c-91,0 -165,-74 -165,-165 0,-92 74,-166 165,-166 92,0 166,74 166,166 0,91 -74,165 -166,165zm333 -119l0 -98 -43 0c-8,-46 -27,-88 -54,-124l35 -34 -69 -69 -36 35c-36,-25 -78,-41 -123,-48l0 -51 -98 0 0 53c-43,8 -83,26 -118,51l-34 -34 -69 69 35 34c-26,37 -43,79 -50,125l-48 0 0 97 49 0c8,45 26,86 52,121l-38 38 68 69 39 -39c35,25 76,42 121,50l0 52 97 0 0 -52c44,-8 85,-25 120,-49l32 32 69 -69 -31 -32c26,-37 45,-80 52,-127l42 0z"/>
  <path class="fil66" d="M5517 3579c-52,0 -95,-43 -95,-96 0,-52 43,-95 95,-95 53,0 96,43 96,95 0,53 -43,96 -96,96zm193 -69l0 -56 -25 0c-5,-27 -16,-51 -31,-72l19 -20 -39 -40 -21 21c-21,-14 -45,-24 -71,-28l0 -29 -56 0 0 30c-25,5 -49,15 -68,30l-20 -20 -40 40 20 20c-15,21 -25,45 -29,71l-28 0 0 57 29 0c5,25 15,49 30,69l-22 22 39 40 23 -22c20,14 44,24 69,28l0 30 56 0 0 -30c26,-4 50,-14 70,-28l18 18 40 -39 -18 -18c15,-22 26,-47 30,-74l25 0z"/>
  <path class="fil4" d="M5910 3028c-188,0 -340,-152 -340,-340 0,-187 152,-340 340,-340 188,0 340,153 340,340 0,188 -152,340 -340,340zm684 -245l0 -200 -88 0c-17,-95 -56,-182 -111,-256l70 -71 -141 -141 -73 73c-74,-51 -161,-85 -254,-99l0 -104 -200 0 0 108c-89,17 -171,54 -242,105l-71 -70 -141 141 71 72c-52,74 -88,161 -102,255l-99 0 0 200 101 0c16,91 53,175 106,248l-78 78 141 141 79 -79c73,51 157,86 248,101l0 108 200 0 0 -108c91,-15 175,-50 247,-100l66 66 141 -141 -65 -65c56,-76 94,-165 109,-262l86 0z"/>
  <path class="fil65" d="M6103 2689c0,110 -89,200 -200,200 -110,0 -199,-90 -199,-200 0,-110 89,-199 199,-199 111,0 200,89 200,199z"/>
  <path class="fil5" d="M2017 3710c-429,26 -762,283 -745,574 18,291 380,506 809,480l0 -1c43,-2 72,-43 62,-84 -5,-20 -8,-41 -9,-62 -2,-139 106,-258 244,-271 100,-9 192,39 244,115 27,38 82,41 110,4 65,-83 99,-177 93,-275 -18,-291 -380,-506 -808,-480z"/>
  <path class="fil4" d="M2014 3663c-429,26 -762,283 -745,574 18,291 380,505 809,479l1 0c42,-2 71,-43 61,-84 -5,-20 -8,-41 -8,-62 -3,-139 105,-258 243,-271 100,-9 192,38 245,115 26,38 81,41 109,4 65,-83 99,-177 93,-275 -18,-291 -379,-506 -808,-480z"/>
  <path class="fil6" d="M1862 4488c3,51 -36,96 -88,99 -51,3 -96,-36 -99,-88 -3,-52 36,-96 88,-99 52,-3 96,36 99,88z"/>
  <path class="fil6" d="M1607 4310c3,52 -36,96 -88,99 -52,4 -96,-36 -99,-87 -3,-52 36,-97 88,-100 51,-3 96,37 99,88z"/>
  <path class="fil6" d="M1682 4000c3,52 -36,96 -88,99 -52,3 -96,-36 -99,-88 -3,-51 36,-96 88,-99 51,-3 96,36 99,88z"/>
  <path class="fil6" d="M1999 3832c3,52 -37,96 -88,99 -52,3 -96,-36 -100,-88 -3,-51 37,-96 88,-99 52,-3 96,36 100,88z"/>
  <path class="fil6" d="M2355 3837c3,51 -36,96 -88,99 -52,3 -96,-36 -99,-88 -3,-52 36,-96 88,-99 52,-3 96,36 99,88z"/>
  <path class="fil6" d="M2656 4006c3,52 -36,96 -88,100 -52,3 -96,-37 -99,-88 -3,-52 36,-96 88,-100 51,-3 96,37 99,88z"/>
  <path class="fil67" d="M2140 4666l0 0c3,-11 3,-22 0,-34 -2,-9 -4,-17 -5,-26l0 0c1,9 3,17 5,26 3,12 3,23 0,34z"/>
  <path class="fil68" d="M2075 4717c0,0 0,0 0,0 0,0 0,0 0,0zm1 0c0,0 0,0 1,0 -1,0 -1,0 -1,0zm1 0c0,0 0,-1 1,-1l1 0c30,-1 54,-23 61,-50l0 0c-7,27 -31,49 -61,50l-1 0c-1,0 -1,1 -1,1zm58 -111c-2,-10 -3,-19 -3,-29 0,10 1,19 3,29l0 0zm-3 -37c0,0 0,0 0,0 0,0 0,0 0,0zm0 0c0,0 0,0 0,0 0,0 0,0 0,0zm0 0c0,0 0,-1 0,-1 0,0 0,1 0,1zm0 -1c0,0 0,0 0,0 0,0 0,0 0,0zm0 0c0,0 0,0 0,0 0,0 0,0 0,0zm0 -1c0,0 0,0 0,0 0,0 0,0 0,0zm0 0c0,0 0,0 0,0 0,0 0,0 0,0zm0 -1c0,0 0,0 0,0 0,0 0,0 0,0zm0 0c0,0 0,0 0,0 0,0 0,0 0,0zm0 0c0,0 0,0 0,0 0,0 0,0 0,0zm0 -1c0,0 0,0 0,0 0,0 0,0 0,0zm0 0c0,0 0,0 0,0 0,0 0,0 0,0zm0 0c0,0 0,-1 0,-1 0,0 0,1 0,1zm0 -1c0,0 0,0 0,0 0,0 0,0 0,0zm0 0c0,0 0,0 0,0 0,0 0,0 0,0zm0 -1c0,0 0,0 0,0 0,0 0,0 0,0zm0 0c0,0 0,0 0,0 0,0 0,0 0,0zm0 0c0,-1 0,-1 0,-1 0,0 0,0 0,1zm0 -1c0,0 0,0 0,0 0,0 0,0 0,0zm0 0c0,0 0,0 0,0 0,0 0,0 0,0zm0 -1c0,0 0,0 0,0 0,0 0,0 0,0zm0 0c0,0 0,0 0,0 0,0 0,0 0,0zm0 -1c0,0 0,0 0,0 0,0 0,0 0,0zm0 0c0,0 0,0 0,0 0,0 0,0 0,0zm0 0c0,0 0,0 0,0 0,0 0,0 0,0zm0 -1c0,0 0,0 0,0 0,0 0,0 0,0zm0 0c0,0 0,0 0,0 0,0 0,0 0,0zm0 0c0,-1 0,-1 0,-1 0,0 0,0 0,1zm0 -1c0,0 0,0 0,0 0,0 0,0 0,0zm0 0c0,0 0,0 0,-1 0,1 0,1 0,1zm0 -1c0,0 0,0 0,0 0,0 0,0 0,0zm0 0c0,0 0,0 0,0 0,0 0,0 0,0zm0 -1c0,0 0,0 0,0 0,0 0,0 0,0zm0 0c0,0 0,0 0,0 0,0 0,0 0,0zm0 0c0,0 0,0 0,-1 0,1 0,1 0,1zm0 -1c0,0 0,0 0,0 0,0 0,0 0,0zm0 0c0,0 0,0 0,0 0,0 0,0 0,0zm0 -1c0,0 0,0 0,0 0,0 0,0 0,0zm0 0c0,0 0,0 0,0 0,0 0,0 0,0zm0 0c0,0 0,0 0,0 0,0 0,0 0,0zm0 -1c0,0 0,0 0,0 0,0 0,0 0,0zm0 0c0,0 0,0 0,0 0,0 0,0 0,0zm0 -1c0,0 0,0 0,0 0,0 0,0 0,0zm0 0c0,0 0,0 0,0 0,0 0,0 0,0zm0 0c0,0 0,0 0,-1 0,1 0,1 0,1zm0 -1c0,0 0,0 0,0 0,0 0,0 0,0zm0 0c0,0 0,0 0,0 0,0 0,0 0,0zm0 0c0,-1 0,-1 0,-1 0,0 0,0 0,1zm0 -1c0,0 0,0 0,0 0,0 0,0 0,0zm0 0c0,0 0,-1 0,-1 0,0 0,1 0,1zm0 -1c0,0 0,0 0,0 0,0 0,0 0,0zm0 0c0,0 0,0 0,0 0,0 0,0 0,0zm0 -1c0,0 0,0 0,0 0,0 0,0 0,0zm0 0c0,0 0,0 0,0 0,0 0,0 0,0zm0 0c0,0 0,0 0,0 0,0 0,0 0,0zm0 -1c0,0 0,0 0,0 0,0 0,0 0,0zm0 0c0,0 0,0 0,0 0,0 0,0 0,0zm0 -1c0,0 0,0 0,0 0,0 0,0 0,0zm0 0c0,0 0,0 0,0 0,0 0,0 0,0zm0 0c0,0 0,0 0,-1 0,1 0,1 0,1zm0 -1c0,0 0,0 0,0 0,0 0,0 0,0zm0 0c0,0 0,0 0,0 0,0 0,0 0,0zm0 0c0,-1 0,-1 0,-1 0,0 0,0 0,1zm0 -1c0,0 0,0 0,0 0,0 0,0 0,0zm1 0c0,0 0,-1 0,-1 0,0 0,1 0,1zm0 -1c0,0 0,0 0,0 0,0 0,0 0,0zm0 0c0,0 0,0 0,0 0,0 0,0 0,0zm0 0c0,-1 0,-1 0,-1 0,0 0,0 0,1zm0 -1c0,0 0,0 0,0 0,0 0,0 0,0zm0 0c0,0 0,-1 0,-1 0,0 0,1 0,1zm0 -1c0,0 0,0 0,0 0,0 0,0 0,0zm0 0c0,0 0,0 0,0 0,0 0,0 0,0zm0 -1c0,0 0,0 0,0 0,0 0,0 0,0zm0 0c0,0 0,0 0,0 0,0 0,0 0,0zm0 0c0,0 0,0 0,0 0,0 0,0 0,0zm0 -1c0,0 0,0 0,0 0,0 0,0 0,0zm0 0c0,0 0,0 0,0 0,0 0,0 0,0zm0 -1c0,0 0,0 0,0 0,0 0,0 0,0zm0 0c0,0 0,0 0,0 0,0 0,0 0,0zm0 0c0,0 0,0 0,0 0,0 0,0 0,0zm0 -1c0,0 0,0 0,0 0,0 0,0 0,0zm0 0c0,0 0,0 0,0 0,0 0,0 0,0zm0 0c0,0 0,-1 0,-1 0,0 0,1 0,1zm0 -1c0,0 0,0 0,-1 0,1 0,1 0,1zm0 -1c0,0 0,0 0,0 0,0 0,0 0,0zm0 0c0,0 0,0 0,0 0,0 0,0 0,0zm0 0c0,-1 0,-1 0,-1 0,0 0,0 0,1zm0 -1c0,0 0,0 1,0 -1,0 -1,0 -1,0zm1 0c0,0 0,0 0,0 0,0 0,0 0,0zm0 0c0,-1 0,-1 0,-1 0,0 0,0 0,1zm0 -1c0,0 0,0 0,0 0,0 0,0 0,0zm0 0c0,-1 0,-1 0,-1 0,0 0,0 0,1zm0 -1c0,0 0,0 0,0 0,0 0,0 0,0zm0 0c0,0 0,0 0,0 0,0 0,0 0,0zm0 -1c0,0 0,0 0,0 0,0 0,0 0,0zm0 0c0,0 0,0 0,0 0,0 0,0 0,0zm0 0c0,-1 0,-1 0,-1 0,0 0,0 0,1zm0 -1c0,0 0,0 0,0 0,0 0,0 0,0zm0 -1c0,0 0,0 0,0 0,0 0,0 0,0zm0 0c0,0 0,0 0,0 0,0 0,0 0,0zm0 0c0,0 0,0 0,-1 0,1 0,1 0,1zm0 -1c0,0 0,0 0,0 0,0 0,0 0,0zm0 0c0,0 0,0 0,-1 0,1 0,1 0,1zm0 -1c0,0 0,0 0,0 0,0 0,0 0,0zm0 0c0,0 0,0 0,0 0,0 0,0 0,0zm0 0c1,0 1,0 1,-1 0,1 0,1 -1,1zm1 -1c0,0 0,0 0,0 0,0 0,0 0,0zm0 0c0,0 0,0 0,0 0,0 0,0 0,0zm0 0c0,0 0,-1 0,-1 0,0 0,1 0,1zm0 -1c0,0 0,0 0,-1 0,1 0,1 0,1zm0 -1c0,0 0,0 0,0 0,0 0,0 0,0zm0 0c0,0 0,0 0,0 0,0 0,0 0,0zm0 0c0,0 0,-1 0,-1 0,0 0,1 0,1zm0 -1c0,0 0,0 0,0 0,0 0,0 0,0zm0 0c0,0 0,0 0,0 0,0 0,0 0,0zm0 0c0,-1 0,-1 0,-1 0,0 0,0 0,1zm0 -1c0,0 0,0 0,0 0,0 0,0 0,0zm0 0c0,0 0,-1 0,-1 0,0 0,1 0,1zm0 -1c0,0 0,0 0,0 0,0 0,0 0,0zm0 0c0,0 0,0 0,0 0,0 0,0 0,0zm0 -1c1,0 1,0 1,0 0,0 0,0 -1,0zm1 0c0,0 0,0 0,0 0,0 0,0 0,0zm0 0c0,0 0,-1 0,-1 0,0 0,1 0,1zm0 -1c0,0 0,0 0,0 0,0 0,0 0,0zm0 0c0,0 0,0 0,0 0,0 0,0 0,0zm0 -1c0,0 0,0 0,0 0,0 0,0 0,0zm0 0c0,0 0,0 0,0 0,0 0,0 0,0zm0 0c0,0 0,0 0,0 0,0 0,0 0,0zm0 -1c0,0 0,0 0,0 0,0 0,0 0,0zm0 0c0,0 0,0 0,0 0,0 0,0 0,0zm0 0c0,-1 0,-1 0,-1 0,0 0,0 0,1zm0 -1c0,0 0,0 0,0 0,0 0,0 0,0zm0 0c0,0 0,0 0,0 0,0 0,0 0,0zm0 -1c0,0 0,0 0,0 0,0 0,0 0,0zm0 0c1,0 1,0 1,0 0,0 0,0 -1,0zm1 0c0,0 0,0 0,-1 0,1 0,1 0,1zm0 -1c0,0 0,0 0,0 0,0 0,0 0,0zm0 -1c0,0 0,0 0,0 0,0 0,0 0,0zm0 0c0,0 0,0 0,0 0,0 0,0 0,0zm0 0c0,0 0,0 0,0 0,0 0,0 0,0zm0 -1c0,0 0,0 0,0 0,0 0,0 0,0zm0 0c0,0 0,0 0,0 0,0 0,0 0,0zm0 0c0,-1 0,-1 0,-1 0,0 0,0 0,1zm0 -1c0,0 0,0 0,0 0,0 0,0 0,0zm0 -1c0,0 0,0 1,0 -1,0 -1,0 -1,0zm1 0c0,0 0,0 0,0 0,0 0,0 0,0zm0 0c0,0 0,0 0,-1 0,1 0,1 0,1zm0 -1c0,0 0,0 0,-1 0,1 0,1 0,1zm0 -1c0,0 0,0 0,0 0,0 0,0 0,0zm0 0c0,0 0,0 0,-1 0,1 0,1 0,1zm0 -1c0,0 0,0 0,0 0,0 0,0 0,0zm0 0c0,0 0,0 0,0 0,0 0,0 0,0zm0 0c0,0 0,0 0,-1 0,1 0,1 0,1zm0 -1c0,0 1,0 1,-1 0,1 -1,1 -1,1zm1 -1c0,0 0,0 0,0 0,0 0,0 0,0zm0 0c0,0 0,0 0,0 0,0 0,0 0,0zm0 0c0,0 0,0 0,-1 0,1 0,1 0,1zm0 -1c0,0 0,0 0,0 0,0 0,0 0,0zm0 0c0,0 0,-1 0,-2 0,1 0,2 0,2zm0 -2c0,0 0,0 0,0 0,0 0,0 0,0zm0 0c0,0 0,0 0,0 0,0 0,0 0,0zm0 0c0,0 1,0 1,-1 0,1 -1,1 -1,1zm1 -1c0,0 0,0 0,-1 0,1 0,1 0,1zm0 -1c0,0 0,0 0,0 0,0 0,0 0,0zm0 0c0,0 0,0 0,-1 0,1 0,1 0,1zm0 -1c0,0 0,0 0,0 0,0 0,0 0,0zm0 0c0,0 0,0 0,0 0,0 0,0 0,0zm0 0c0,-1 1,-1 1,-2 0,1 -1,1 -1,2zm1 -2c0,0 0,0 0,0 0,0 0,0 0,0zm0 0c0,0 0,0 0,-1 0,1 0,1 0,1zm0 -1c0,0 0,-1 0,-1 0,0 0,1 0,1zm0 -2c0,0 0,0 0,0 0,0 0,0 0,0zm0 0c1,0 1,0 1,0 0,0 0,0 -1,0zm1 0c0,-1 0,-2 0,-3 0,1 0,2 0,3zm0 -3c26,-87 95,-156 183,-182 0,0 0,0 0,0 -88,26 -157,95 -183,182z"/>
  <path class="fil69" d="M2037 4718c15,-45 31,-91 46,-136l0 0c1,-3 2,-6 3,-9 2,-6 4,-11 6,-17 2,-5 3,-10 5,-14 2,-6 4,-11 5,-16 2,-4 3,-8 5,-13 2,-6 4,-12 6,-18 1,-3 2,-6 4,-10 2,-6 4,-13 6,-19 1,-3 2,-6 3,-9 3,-7 5,-13 7,-20 1,-3 2,-6 4,-9 2,-6 4,-12 6,-19 1,-2 2,-5 3,-8 2,-6 4,-13 7,-19 1,-3 1,-5 2,-7 2,-7 5,-13 7,-19 1,-4 2,-7 3,-10 2,-5 4,-11 6,-16 1,-3 2,-6 3,-8 2,-6 4,-11 6,-17 0,-2 1,-5 2,-7 2,-6 4,-11 6,-16 1,-4 2,-7 3,-10 2,-4 3,-8 5,-12 1,-3 2,-6 3,-9 9,-26 17,-49 24,-69 3,-7 5,-14 8,-21 1,-2 1,-4 2,-6 2,-5 4,-9 5,-14 1,-2 2,-5 3,-7 2,-4 3,-8 4,-11 1,-3 2,-5 3,-8 2,-3 3,-6 4,-9 1,-3 2,-5 3,-8 1,-3 3,-6 4,-8 1,-3 2,-5 3,-8 1,-2 2,-5 3,-7 1,-2 2,-5 3,-7 1,-2 2,-4 3,-6 1,-3 2,-5 3,-7 1,-2 2,-4 2,-6 1,-2 3,-4 4,-6 0,-2 1,-3 2,-5 1,-2 2,-4 3,-6 0,-2 1,-3 2,-4 1,-2 2,-4 3,-6l1 -3c2,-2 3,-4 4,-6l1 -3c1,-2 2,-3 3,-5l1 -2c1,-2 2,-4 3,-5l1 -2c1,-1 2,-3 3,-5l1 0c1,-2 2,-4 3,-5l0 0 0 0c15,-22 23,-25 27,-25 0,0 1,0 1,0l-8 -3c-15,-6 -22,-22 -16,-37l0 0c1,-1 1,-2 1,-2 6,-4 11,-9 15,-14 4,-1 7,-2 10,-2 1,0 1,0 2,0l88 -185c34,13 66,26 97,42l-66 190c9,5 14,14 15,24 -3,6 -5,12 -6,19 -6,7 -14,11 -23,11 -3,0 -7,-1 -10,-2l-9 -4c3,2 28,21 -71,239 -10,21 -21,45 -33,72 -88,26 -157,95 -183,182l0 0c0,1 0,2 0,3 0,0 0,0 0,0 0,0 0,0 -1,0 0,0 0,0 0,0 0,0 0,0 0,0 0,0 0,0 0,1 0,0 0,1 0,1 0,0 0,0 0,0 0,1 0,1 0,1 0,0 0,0 0,0 0,0 0,0 0,0 0,0 0,0 0,0 0,1 -1,1 -1,2 0,0 0,0 0,0 0,0 0,0 0,0 0,0 0,0 0,0 0,0 0,0 0,0 0,0 0,0 0,0 0,1 0,1 0,1 0,0 0,0 0,0 0,0 0,0 0,0l0 0c0,1 0,1 0,1l0 0c0,1 -1,1 -1,1 0,0 0,0 0,0 0,0 0,0 0,0 0,0 0,0 0,0 0,0 0,0 0,0 0,0 0,0 0,0 0,1 0,2 0,2 0,0 0,0 0,0 0,0 0,0 0,0 0,0 0,0 0,0 0,1 0,1 0,1 0,0 0,0 0,0 0,0 0,0 0,0 0,0 0,0 0,0 0,0 0,0 0,0l0 0c0,1 -1,1 -1,1 0,0 0,0 0,0 0,1 0,1 0,1 0,0 0,0 0,0 0,0 0,0 0,0 0,0 0,0 0,0 0,0 0,0 0,0 0,0 0,0 0,0 0,1 0,1 0,1 0,0 0,0 0,0 0,0 0,0 0,0 0,0 0,0 0,0 0,1 0,1 0,1 0,0 0,0 0,0 0,1 0,1 0,1 0,0 0,0 0,0 0,0 0,0 0,0 0,0 0,0 0,0 -1,0 -1,0 -1,0 0,0 0,0 0,1 0,0 0,0 0,0 0,0 0,0 0,0 0,0 0,0 0,1 0,0 0,0 0,0 0,0 0,0 0,0 0,0 0,0 0,0 0,0 0,0 0,0 0,0 0,0 0,1 0,0 0,0 0,0 0,0 0,0 0,0 0,0 0,0 0,0 0,0 0,0 0,0 0,0 0,0 0,0 0,0 0,1 0,1 0,0 0,0 0,0l0 0c0,1 0,1 0,1 0,0 0,0 0,0 0,0 0,0 -1,0 0,0 0,0 0,0 0,0 0,0 0,0 0,0 0,1 0,1 0,0 0,0 0,0 0,0 0,0 0,0 0,0 0,0 0,0 0,0 0,0 0,0 0,0 0,0 0,1 0,0 0,0 0,0 0,0 0,0 0,0 0,0 0,0 0,0 0,0 0,0 0,0 0,0 0,1 0,1 0,0 0,0 0,0 0,0 0,0 0,0 0,0 0,0 0,0 0,0 0,0 0,0 0,0 0,0 0,0 0,1 0,1 0,1 0,0 0,0 0,0 0,0 0,0 0,0 0,0 0,0 0,0 0,0 0,0 0,0 0,0 0,1 0,1 0,0 0,0 0,0 0,0 0,0 0,0 0,0 0,0 0,0 0,0 0,0 -1,0 0,1 0,1 0,1 0,0 0,0 0,0 0,0 0,0 0,0 0,0 0,0 0,0 0,0 0,0 0,0 0,0 0,1 0,1 0,0 0,0 0,0 0,0 0,0 0,0 0,0 0,0 0,0 0,0 0,0 0,1 0,0 0,0 0,0 0,0 0,0 0,0 0,0 0,0 0,0 0,0 0,0 0,0 0,0 0,0 0,0 0,0 0,1 0,1 0,0 0,0 0,0 0,0 0,0 0,0 0,0 0,0 0,0 0,0 0,0 0,0 0,0 0,0 0,0 0,1 0,1 0,1 0,0 0,0 0,0 0,0 0,1 0,1 0,0 0,0 0,0 0,0 0,0 0,0 0,0 0,0 0,0 0,0 0,0 0,0 0,0 0,0 0,0 0,1 0,1 -1,1 0,0 0,0 0,0 0,0 0,0 0,0 0,0 0,0 0,0 0,0 0,0 0,0 0,0 0,0 0,0 0,1 0,1 0,1 0,0 0,0 0,0 0,0 0,0 0,0 0,0 0,0 0,0 0,1 0,1 0,1 0,0 0,0 0,0 0,0 0,0 0,0 0,0 0,0 0,0 0,0 0,0 0,0 0,0 0,1 0,1 0,0 0,0 0,0 0,0 0,0 0,0 0,0 0,0 0,1 0,0 0,0 0,0 0,0 0,0 0,0 0,0 0,0 0,0 0,0 0,0 0,0 0,0 0,1 0,1 0,0 0,0 0,0 0,0 0,0 0,0 0,0 0,0 0,0 0,0 0,0 0,0 0,0 0,0 0,1 0,0 0,0 0,0 0,0 0,0 0,0 0,0 0,0 0,0 0,0 0,0 0,1 0,0 0,0 0,0 0,0 0,0 0,0 0,0 0,0 0,0 -1,0 -1,0 -1,0 0,0 0,0 0,0 0,0 0,0 0,1 0,0 0,0 0,0 0,0 0,0 0,0 0,0 0,0 0,0 0,0 0,0 0,0 0,0 0,0 0,0 0,1 0,1 0,1 0,0 0,0 0,0 0,0 0,1 0,1 0,0 0,0 0,0 0,0 0,0 0,0 0,0 0,0 0,0 0,0 0,0 0,0 0,0 0,0 0,1 0,0 0,0 0,0 0,0 0,0 0,0 0,0 0,0 0,0 0,0 0,0 0,0 0,0 0,0 0,0 0,0 0,1 0,1 0,0 0,0 0,0 0,0 0,0 0,0 0,0 0,0 0,0 0,0 0,0 0,1 0,0 0,0 0,0 0,0 0,0 0,0 0,0 0,0 0,0 0,0 0,0 0,0 0,0 0,0 0,0 0,1 0,1 0,1 0,0 0,0 0,0 0,0 0,0 0,0 0,0 0,0 0,0 0,0 0,0 0,0 0,0 0,1 0,1 0,0 0,0 0,0 0,0 0,0 0,0 0,0 0,0 0,0 0,0 0,0 0,1 0,0 0,0 0,0 0,0 0,0 0,0 0,0 0,0 0,0 0,0 0,0 0,0 0,0 0,0 0,0 0,0 0,1 0,1 0,0 0,0 -1,0 0,0 0,0 0,0 0,0 0,0 0,0 0,0 0,0 0,1 0,0 0,0 0,0 0,0 0,0 0,0 0,0 0,0 0,0 0,0 0,0 0,0 0,0 0,0 0,0 0,1 0,1 0,1 0,0 0,0 0,0 0,0 0,0 0,0 0,0 0,0 0,0 0,0 0,0 0,0 0,0 0,1 0,1 0,0 0,0 0,0 0,0 0,0 0,0 0,0 0,0 0,0 0,0 0,0 0,1 0,0 0,0 0,0 0,0 0,0 0,0 0,0 0,0 0,0 0,0 0,0 0,0 0,0 0,0 0,0 0,1 0,1 0,1 0,0 0,0 0,0 0,0 0,0 0,0 0,0 0,0 0,0 0,0 0,0 0,0 0,0 0,1 0,1 0,0 0,0 0,0 0,0 0,0 0,0 0,0 0,0 0,0 0,0 0,0 0,1 0,0 0,0 0,0 0,0 0,0 0,0 0,0 0,0 0,0 0,0 0,0 0,0 0,0 0,0 0,0 0,1 0,1 0,1 0,0 0,0 0,0 0,0 0,0 0,0 0,0 0,0 0,0 0,0 0,0 0,0 0,0 0,1 0,1 0,0 0,0 0,0 0,0 0,0 0,0 0,0 0,0 0,0 0,0 0,0 0,1 0,0 0,0 0,0 0,0 0,0 0,0 0,0 0,0 0,0 0,0 0,0 0,0 0,0 0,0 0,0 0,1 0,1 0,1 0,0 0,0 0,0 0,0 0,0 0,0 0,0 0,0 0,0 0,0 0,0 0,0 0,1 0,1 0,1 0,0 0,0 0,0 0,0 0,0 0,0 0,0 0,0 0,0 0,0 0,0 0,0 0,1 0,1 0,1 0,0 0,0 0,0 0,0 0,0 0,0 0,0 0,0 0,0 0,0 0,0 0,0 0,1 0,1 0,1 0,0 0,0 0,0 0,0 0,0 0,0 0,0 0,0 0,0 0,0 0,0 0,1 0,0 0,0 0,0 0,0 0,0 0,0 0,0 0,0 0,0 0,0 0,0 0,0 0,0 0,0 0,1 0,0 0,0 0,0 0,0 0,0 0,0 0,0 0,0 0,0 0,0 0,0 0,0 0,0 0,0 0,0 0,1 0,1 0,1 0,0 0,0 0,0 0,0 0,0 0,0 0,0 0,0 0,0 0,0 0,1 0,1 0,0 0,0 0,0 0,0 0,0 0,0 0,0 0,0 0,0 0,0 0,0 0,0 0,0 0,0 0,1 0,0 0,0 0,0 0,0 0,0 0,0 0,0 0,0 0,0 0,0 0,0 0,0 0,0 0,0 0,1 0,0 0,0 0,0 0,0 0,0 0,0 0,0 0,0 0,0 0,0 0,0 0,0 0,0 0,1 0,1 0,0 0,0 0,0 0,0 0,0 0,0 0,0 0,0 0,0 0,0 0,0 0,0 0,0 0,0 0,1 0,0 0,0 0,0 0,0 0,0 0,0 0,0 0,0 0,0 0,0 0,0 0,0 0,0 0,0 0,0 0,1 0,1 0,1 0,0 0,0 0,0 0,0 0,0 0,0 0,0 0,0 0,0 0,0 0,1 0,1 0,0 0,0 0,0 0,0 0,0 0,0 0,0 0,0 0,0 0,0 0,0 0,0 0,0 0,1 0,1 0,0 0,0 0,0 0,0 0,0 0,0 0,0 0,0 0,0 0,0 0,0 0,0 0,0 0,1 0,1 0,2 0,4 0,7 0,10 1,19 3,29 1,9 3,17 5,26 3,12 3,23 0,34 -7,27 -31,49 -61,50l-1 0c-1,0 -1,1 -1,1 0,0 0,0 0,0 -1,0 -1,0 -1,0 -1,0 -1,0 -1,0 0,0 0,0 0,0 -13,0 -26,1 -38,1zm302 -757l0 0 2 1 -2 -1z"/>
  <path class="fil70" d="M2316 3919c3,-7 9,-12 15,-14 -4,5 -9,10 -15,14z"/>
  <path class="fil70" d="M2471 3993c1,-7 3,-13 6,-19 0,4 -1,8 -2,11l-1 1c-1,2 -2,5 -3,7z"/>
  <path class="fil71" d="M1627 4027c-21,0 -38,-16 -39,-37 -2,-21 15,-40 36,-41 1,0 2,0 3,0 20,0 38,16 39,36 1,22 -15,41 -37,42 -1,0 -2,0 -2,0z"/>
  <path class="fil71" d="M1943 3863c-20,0 -37,-16 -39,-37 -1,-22 15,-40 37,-42 1,0 2,0 2,0 21,0 38,16 40,37 1,22 -16,40 -37,42 -1,0 -2,0 -3,0z"/>
  <path class="fil71" d="M2279 3854c-21,0 -38,-16 -39,-37 -2,-21 15,-40 36,-41 1,0 2,0 3,0 20,0 38,16 39,37 1,21 -15,40 -37,41 -1,0 -1,0 -2,0z"/>
  <path class="fil71" d="M1528 4324c-20,0 -38,-16 -39,-37 -1,-21 15,-40 37,-41 1,0 1,0 2,0 21,0 38,16 39,37 2,21 -15,40 -36,41 -1,0 -2,0 -3,0z"/>
  <path class="fil71" d="M1806 4502c-20,0 -38,-16 -39,-37 -1,-21 15,-40 37,-41 1,0 1,0 2,0 21,0 38,16 39,36 2,22 -15,41 -36,42 -1,0 -2,0 -3,0z"/>
  <path class="fil6" d="M2774 3663c0,0 128,-70 136,-178 -1,-64 -28,-117 -28,-117l-18 66c0,0 -9,-103 -83,-153 -74,-50 -56,-36 -56,-36 0,0 62,82 -7,219 -69,136 18,183 18,183l38 16z"/>
  <path class="fil12" d="M2766 3618c0,0 -23,-118 30,-182 -69,87 -83,157 -66,214 36,-32 36,-32 36,-32z"/>
  <path class="fil1" d="M2704 3642c11,-23 38,-33 62,-24l0 0 1 1c23,9 35,35 28,60l-84 258 -64 -26 -63 -26 120 -243z"/>
  <path class="fil72" d="M2574 3943l107 44c15,6 31,-1 37,-16l0 0c6,-15 -1,-31 -15,-37l-107 -44c-15,-6 -31,1 -37,16l0 0c-6,15 1,31 15,37z"/>
  <path class="fil11" d="M2583 3947l45 18 45 18c0,0 34,8 -72,239 -78,172 -280,602 -396,832 -11,22 -43,9 -36,-14 77,-246 234,-695 298,-872 86,-239 116,-221 116,-221z"/>
  <path class="fil1" d="M2343 4773c-51,105 -99,204 -138,281 -11,22 -43,9 -36,-14 26,-83 61,-188 98,-298l76 31z"/>
  <path class="fil73" d="M2467 4167c0,0 0,0 0,0 0,0 0,0 0,0zm0 -1c0,0 0,0 0,0 0,0 0,0 0,0zm0 0c0,0 0,-1 1,-1 -1,0 -1,1 -1,1zm1 -1c0,0 0,0 0,0 0,0 0,0 0,0zm0 -1c0,0 0,0 0,0 0,0 0,0 0,0zm0 0l0 0z"/>
  <path class="fil74" d="M2327 4567c55,-161 109,-313 140,-399 0,-1 0,-1 0,-1 0,0 0,0 0,0 0,0 0,-1 0,-1 0,0 0,0 0,0 0,0 0,0 0,0 0,0 0,-1 1,-1 0,0 0,0 0,0 0,0 0,0 0,0 0,0 0,-1 0,-1 0,0 0,0 0,0 0,0 0,0 0,0l0 0c41,-112 68,-167 87,-193 -1,2 -63,391 -228,596l0 0z"/>
  <polygon class="fil66" points="5527,4087 5556,4146 5621,4156 5574,4202 5585,4267 5527,4237 5468,4267 5479,4202 5432,4156 5497,4146 "/>
  <polygon class="fil65" points="6370,4004 6411,4087 6502,4100 6436,4165 6452,4256 6370,4213 6288,4256 6304,4165 6237,4100 6329,4087 "/>
  <polygon class="fil66" points="6114,5246 6137,5292 6188,5299 6151,5335 6160,5386 6114,5362 6068,5386 6077,5335 6040,5299 6091,5292 "/>
  <polygon class="fil65" points="5300,4932 5341,5015 5432,5029 5366,5093 5381,5184 5300,5141 5218,5184 5234,5093 5167,5029 5259,5015 "/>
  <path class="fil6" d="M5475 4582c67,-242 319,-384 561,-316 243,67 385,319 317,562 -68,242 -319,384 -562,316 -242,-68 -384,-319 -316,-562z"/>
  <path class="fil75" d="M5791 5144l0 0c-242,-68 -384,-319 -316,-562 3,-14 8,-28 13,-41 -5,13 -10,27 -13,41 -68,243 74,494 316,562l0 0zm-303 -603c0,0 0,0 0,-1 0,1 0,1 0,1zm1 -1c0,0 0,0 0,0 0,0 0,0 0,0zm0 0l0 0 0 0z"/>
  <path class="fil32" d="M5914 5161c-41,0 -82,-5 -123,-17l0 0c-242,-68 -384,-319 -316,-562 3,-14 8,-28 13,-41l0 0c0,0 0,0 0,-1 0,0 0,0 1,0 0,0 0,0 0,0 0,0 0,0 0,0l0 0c54,-139 170,-239 307,-276 -57,55 -100,125 -123,207 -68,242 74,494 317,561 40,12 82,17 122,17 40,0 80,-5 118,-15 -84,80 -197,127 -316,127z"/>
  <path class="fil17" d="M6352 4830l0 0 0 0zm0 0c0,0 0,0 0,0 0,0 0,0 0,0zm0 -1c0,0 0,0 0,0 0,0 0,0 0,0zm1 -1c0,0 0,0 0,0 0,0 0,0 0,0zm17 -123c0,-192 -122,-369 -311,-432 189,63 311,240 311,432zm-334 -439c0,0 0,0 0,0 0,0 0,0 0,0zm-1 0c0,-1 0,-1 0,-1 0,0 0,0 0,1zm0 -1c0,0 0,0 0,0 0,0 0,0 0,0zm-1 0c0,0 0,0 0,0 0,0 0,0 0,0zm0 0c0,0 0,0 0,0 0,0 0,0 0,0zm-1 0c0,0 0,0 0,0 0,0 0,0 0,0z"/>
  <path class="fil64" d="M6338 4872c-222,-50 -388,-249 -388,-486 0,-46 6,-91 18,-134 22,3 43,7 65,13 0,0 0,0 0,0 0,0 0,0 1,0 0,0 0,0 0,0 0,0 0,0 0,0 0,0 0,0 0,0 0,0 0,0 1,0 0,0 0,0 0,0 0,0 0,0 0,0 0,0 0,0 0,1 0,0 0,0 1,0 0,0 0,0 0,0 0,0 0,0 0,0 8,2 16,4 23,7 189,63 311,240 311,432 0,40 -6,82 -17,123l0 0c0,0 0,0 0,0 0,0 0,0 0,0 0,1 0,1 -1,1 0,0 0,0 0,0 0,0 0,0 0,1 0,0 0,0 0,0 0,0 0,0 0,0l0 0c-4,14 -9,28 -14,42z"/>
  <path class="fil65" d="M5464 4655c-84,-33 -153,-65 -201,-92 -23,-13 -41,-26 -53,-36 -6,-5 -10,-10 -12,-14 -3,-3 -3,-5 -3,-6l0 0 0 0c0,0 0,-1 3,-3 3,-2 11,-5 24,-7 12,-2 27,-3 46,-3 62,0 158,11 273,33 116,22 251,53 395,94 197,54 372,115 498,168 63,27 113,52 147,74 17,11 30,21 38,29 4,4 7,7 9,10 1,3 1,4 1,5l0 0c0,0 0,1 -2,3 -4,2 -12,5 -24,7 -12,2 -28,3 -46,3 -55,0 -136,-9 -233,-26l-4 28c98,17 179,26 237,26 26,0 47,-2 64,-6 8,-3 15,-5 21,-9 7,-5 12,-11 14,-19 1,-2 1,-5 1,-7 0,-7 -2,-13 -5,-19 -6,-10 -16,-20 -29,-30 -22,-18 -56,-37 -98,-58 -127,-62 -338,-138 -581,-206 -145,-41 -281,-72 -398,-94 -116,-22 -213,-34 -278,-34 -26,0 -48,2 -64,6 -9,2 -16,5 -22,9 -6,4 -12,10 -14,18l0 0c0,3 -1,6 -1,8 0,8 3,15 7,22 8,11 20,21 35,33 24,17 57,35 99,55 41,20 90,42 146,63l10 -25 0 0z"/>
 </g>
</svg>
